<?xml version="1.0" encoding="UTF-8" standalone="no"?>
<!DOCTYPE svg PUBLIC "-//W3C//DTD SVG 1.1//EN"
 "http://www.w3.org/Graphics/SVG/1.1/DTD/svg11.dtd">
<!-- Generated by graphviz version 2.43.0 (0)
 -->
<!-- Title: list Pages: 1 -->
<svg width="1697pt" height="359pt"
 viewBox="0.00 0.00 1697.00 359.00" xmlns="http://www.w3.org/2000/svg" xmlns:xlink="http://www.w3.org/1999/xlink">
<g id="graph0" class="graph" transform="scale(1 1) rotate(0) translate(4 355)">
<title>list</title>
<polygon fill="white" stroke="transparent" points="-4,4 -4,-355 1693,-355 1693,4 -4,4"/>
<text text-anchor="middle" x="844.5" y="-7" font-family="Arial" font-size="10.00">TaskMachine</text>
<!-- i -->
<g id="node1" class="node">
<title>i</title>
<ellipse fill="black" stroke="black" cx="7" cy="-307" rx="7" ry="7"/>
<text text-anchor="middle" x="7" y="-306.7" font-family="Times,serif" font-size="1.00">i</text>
</g>
<!-- NAMED -->
<g id="node2" class="node">
<title>NAMED</title>
<path fill="turquoise" stroke="black" stroke-width="2" d="M93,-325C93,-325 63,-325 63,-325 57,-325 51,-319 51,-313 51,-313 51,-301 51,-301 51,-295 57,-289 63,-289 63,-289 93,-289 93,-289 99,-289 105,-295 105,-301 105,-301 105,-313 105,-313 105,-319 99,-325 93,-325"/>
<text text-anchor="middle" x="78" y="-304.5" font-family="Arial" font-size="10.00">Named</text>
</g>
<!-- i&#45;&gt;NAMED -->
<g id="edge1" class="edge">
<title>i&#45;&gt;NAMED</title>
<path fill="none" stroke="blue" d="M14.37,-307C20.57,-307 30.54,-307 40.71,-307"/>
<polygon fill="blue" stroke="blue" points="40.82,-310.5 50.82,-307 40.82,-303.5 40.82,-310.5"/>
</g>
<!-- DEAD -->
<g id="node3" class="node">
<title>DEAD</title>
<path fill="white" stroke="black" d="M1673,-303C1673,-303 1643,-303 1643,-303 1637,-303 1631,-297 1631,-291 1631,-291 1631,-279 1631,-279 1631,-273 1637,-267 1643,-267 1643,-267 1673,-267 1673,-267 1679,-267 1685,-273 1685,-279 1685,-279 1685,-291 1685,-291 1685,-297 1679,-303 1673,-303"/>
<path fill="none" stroke="black" d="M1677,-307C1677,-307 1639,-307 1639,-307 1633,-307 1627,-301 1627,-295 1627,-295 1627,-275 1627,-275 1627,-269 1633,-263 1639,-263 1639,-263 1677,-263 1677,-263 1683,-263 1689,-269 1689,-275 1689,-275 1689,-295 1689,-295 1689,-301 1683,-307 1677,-307"/>
<text text-anchor="middle" x="1658" y="-282.5" font-family="Arial" font-size="10.00">Dead</text>
</g>
<!-- NAMED&#45;&gt;DEAD -->
<g id="edge2" class="edge">
<title>NAMED&#45;&gt;DEAD</title>
<path fill="none" stroke="blue" d="M105.08,-313.75C134.85,-320.85 185.09,-331 229,-331 229,-331 229,-331 1486.5,-331 1532.54,-331 1583.24,-315.17 1617.29,-302.08"/>
<polygon fill="blue" stroke="blue" points="1618.84,-305.23 1626.86,-298.31 1616.27,-298.72 1618.84,-305.23"/>
<text text-anchor="middle" x="839.5" y="-343.8" font-family="Arial" font-size="9.00">setup progress</text>
<text text-anchor="middle" x="839.5" y="-333.8" font-family="Arial" font-size="9.00">[spec_missing]</text>
</g>
<!-- DECLARED -->
<g id="node4" class="node">
<title>DECLARED</title>
<path fill="white" stroke="black" d="M246,-282C246,-282 214,-282 214,-282 208,-282 202,-276 202,-270 202,-270 202,-258 202,-258 202,-252 208,-246 214,-246 214,-246 246,-246 246,-246 252,-246 258,-252 258,-258 258,-258 258,-270 258,-270 258,-276 252,-282 246,-282"/>
<text text-anchor="middle" x="230" y="-261.5" font-family="Arial" font-size="10.00">Declared</text>
</g>
<!-- NAMED&#45;&gt;DECLARED -->
<g id="edge3" class="edge">
<title>NAMED&#45;&gt;DECLARED</title>
<path fill="none" stroke="blue" d="M105.13,-299.51C129.17,-292.62 165.08,-282.33 192.05,-274.59"/>
<polygon fill="blue" stroke="blue" points="193.26,-277.89 201.91,-271.77 191.33,-271.16 193.26,-277.89"/>
<text text-anchor="middle" x="153.5" y="-296.8" font-family="Arial" font-size="9.00">setup progress</text>
</g>
<!-- DISABLED -->
<g id="node5" class="node">
<title>DISABLED</title>
<path fill="white" stroke="black" d="M752.5,-294C752.5,-294 721.5,-294 721.5,-294 715.5,-294 709.5,-288 709.5,-282 709.5,-282 709.5,-270 709.5,-270 709.5,-264 715.5,-258 721.5,-258 721.5,-258 752.5,-258 752.5,-258 758.5,-258 764.5,-264 764.5,-270 764.5,-270 764.5,-282 764.5,-282 764.5,-288 758.5,-294 752.5,-294"/>
<text text-anchor="middle" x="737" y="-273.5" font-family="Arial" font-size="10.00">Disabled</text>
</g>
<!-- DECLARED&#45;&gt;DISABLED -->
<g id="edge4" class="edge">
<title>DECLARED&#45;&gt;DISABLED</title>
<path fill="none" stroke="blue" d="M258.25,-255.52C308.16,-240.55 417.86,-210.23 513,-202 543.11,-199.39 550.8,-200.81 581,-202 620.65,-203.56 636.7,-187.42 670,-209 684.02,-218.09 676.9,-229.52 688,-242 691.91,-246.4 696.5,-250.54 701.25,-254.32"/>
<polygon fill="blue" stroke="blue" points="699.22,-257.17 709.33,-260.32 703.39,-251.54 699.22,-257.17"/>
<text text-anchor="middle" x="461" y="-226.8" font-family="Arial" font-size="9.00">setup progress</text>
<text text-anchor="middle" x="461" y="-216.8" font-family="Arial" font-size="9.00">[should_disable]</text>
</g>
<!-- DEFINED -->
<g id="node6" class="node">
<title>DEFINED</title>
<path fill="white" stroke="black" d="M397,-282C397,-282 367,-282 367,-282 361,-282 355,-276 355,-270 355,-270 355,-258 355,-258 355,-252 361,-246 367,-246 367,-246 397,-246 397,-246 403,-246 409,-252 409,-258 409,-258 409,-270 409,-270 409,-276 403,-282 397,-282"/>
<text text-anchor="middle" x="382" y="-261.5" font-family="Arial" font-size="10.00">Defined</text>
</g>
<!-- DECLARED&#45;&gt;DEFINED -->
<g id="edge5" class="edge">
<title>DECLARED&#45;&gt;DEFINED</title>
<path fill="none" stroke="blue" d="M258.16,-264C282.39,-264 318.04,-264 344.7,-264"/>
<polygon fill="blue" stroke="blue" points="344.79,-267.5 354.79,-264 344.79,-260.5 344.79,-267.5"/>
<text text-anchor="middle" x="306.5" y="-266.8" font-family="Arial" font-size="9.00">setup progress</text>
</g>
<!-- DISABLED&#45;&gt;DEAD -->
<g id="edge8" class="edge">
<title>DISABLED&#45;&gt;DEAD</title>
<path fill="none" stroke="blue" d="M764.66,-278.16C799.94,-280.82 864.1,-285 919,-285 919,-285 919,-285 1486.5,-285 1531.03,-285 1582.1,-285 1616.65,-285"/>
<polygon fill="blue" stroke="blue" points="1616.82,-288.5 1626.82,-285 1616.82,-281.5 1616.82,-288.5"/>
<text text-anchor="middle" x="1240.5" y="-287.8" font-family="Arial" font-size="9.00">finish progress</text>
</g>
<!-- DEFINED&#45;&gt;DISABLED -->
<g id="edge6" class="edge">
<title>DEFINED&#45;&gt;DISABLED</title>
<path fill="none" stroke="blue" d="M409.04,-266.65C414.94,-267.17 421.18,-267.66 427,-268 525.09,-273.72 640.94,-275.35 698.97,-275.82"/>
<polygon fill="blue" stroke="blue" points="699.08,-279.32 709.11,-275.89 699.14,-272.32 699.08,-279.32"/>
<text text-anchor="middle" x="547" y="-286.8" font-family="Arial" font-size="9.00">setup progress</text>
<text text-anchor="middle" x="547" y="-276.8" font-family="Arial" font-size="9.00">[should_disable]</text>
</g>
<!-- INIT -->
<g id="node7" class="node">
<title>INIT</title>
<path fill="white" stroke="black" d="M562,-247C562,-247 532,-247 532,-247 526,-247 520,-241 520,-235 520,-235 520,-223 520,-223 520,-217 526,-211 532,-211 532,-211 562,-211 562,-211 568,-211 574,-217 574,-223 574,-223 574,-235 574,-235 574,-241 568,-247 562,-247"/>
<text text-anchor="middle" x="547" y="-226.5" font-family="Arial" font-size="10.00">Init</text>
</g>
<!-- DEFINED&#45;&gt;INIT -->
<g id="edge7" class="edge">
<title>DEFINED&#45;&gt;INIT</title>
<path fill="none" stroke="blue" d="M409.19,-258.38C436.52,-252.51 479.56,-243.27 510.05,-236.72"/>
<polygon fill="blue" stroke="blue" points="510.83,-240.13 519.88,-234.61 509.36,-233.29 510.83,-240.13"/>
<text text-anchor="middle" x="461" y="-256.8" font-family="Arial" font-size="9.00">setup progress</text>
</g>
<!-- INIT&#45;&gt;DISABLED -->
<g id="edge9" class="edge">
<title>INIT&#45;&gt;DISABLED</title>
<path fill="none" stroke="blue" d="M574.08,-231.55C599.03,-234.39 637.57,-239.84 670,-249 679.92,-251.8 690.37,-255.64 699.95,-259.54"/>
<polygon fill="blue" stroke="blue" points="698.62,-262.77 709.19,-263.42 701.33,-256.32 698.62,-262.77"/>
<text text-anchor="middle" x="634.5" y="-261.8" font-family="Arial" font-size="9.00">setup progress</text>
<text text-anchor="middle" x="634.5" y="-251.8" font-family="Arial" font-size="9.00">[should_disable]</text>
</g>
<!-- WAIT -->
<g id="node8" class="node">
<title>WAIT</title>
<path fill="white" stroke="black" d="M774,-233C774,-233 700,-233 700,-233 694,-233 688,-227 688,-221 688,-221 688,-209 688,-209 688,-203 694,-197 700,-197 700,-197 774,-197 774,-197 780,-197 786,-203 786,-209 786,-209 786,-221 786,-221 786,-227 780,-233 774,-233"/>
<text text-anchor="middle" x="737" y="-218" font-family="Arial" font-size="10.00">Wait</text>
<text text-anchor="middle" x="737" y="-207" font-family="Arial" font-size="10.00">prepare progress / </text>
</g>
<!-- INIT&#45;&gt;WAIT -->
<g id="edge10" class="edge">
<title>INIT&#45;&gt;WAIT</title>
<path fill="none" stroke="blue" d="M574.23,-221.02C582.12,-218.97 590.84,-217.05 599,-216 624.7,-212.68 653.33,-212.01 677.75,-212.33"/>
<polygon fill="blue" stroke="blue" points="677.87,-215.83 687.94,-212.52 678.01,-208.83 677.87,-215.83"/>
<text text-anchor="middle" x="634.5" y="-218.8" font-family="Arial" font-size="9.00">prepare progress</text>
</g>
<!-- HALTED -->
<g id="node9" class="node">
<title>HALTED</title>
<path fill="white" stroke="black" d="M1331.5,-186C1331.5,-186 1301.5,-186 1301.5,-186 1295.5,-186 1289.5,-180 1289.5,-174 1289.5,-174 1289.5,-162 1289.5,-162 1289.5,-156 1295.5,-150 1301.5,-150 1301.5,-150 1331.5,-150 1331.5,-150 1337.5,-150 1343.5,-156 1343.5,-162 1343.5,-162 1343.5,-174 1343.5,-174 1343.5,-180 1337.5,-186 1331.5,-186"/>
<text text-anchor="middle" x="1316.5" y="-165.5" font-family="Arial" font-size="10.00">Halted</text>
</g>
<!-- WAIT&#45;&gt;HALTED -->
<g id="edge11" class="edge">
<title>WAIT&#45;&gt;HALTED</title>
<path fill="none" stroke="blue" d="M786.24,-216.5C871.65,-219.06 1055.09,-224.2 1210,-226 1237.11,-226.32 1247.5,-239.53 1271,-226 1284.81,-218.05 1279.34,-207.67 1289,-195 1289.29,-194.62 1289.58,-194.24 1289.88,-193.86"/>
<polygon fill="blue" stroke="blue" points="1292.75,-195.9 1296.61,-186.03 1287.44,-191.34 1292.75,-195.9"/>
<text text-anchor="middle" x="1000.5" y="-235.8" font-family="Arial" font-size="9.00">prepare progress</text>
<text text-anchor="middle" x="1000.5" y="-225.8" font-family="Arial" font-size="9.00">[should_timeout]</text>
</g>
<!-- READY -->
<g id="node10" class="node">
<title>READY</title>
<path fill="white" stroke="black" d="M935,-148C935,-148 905,-148 905,-148 899,-148 893,-142 893,-136 893,-136 893,-124 893,-124 893,-118 899,-112 905,-112 905,-112 935,-112 935,-112 941,-112 947,-118 947,-124 947,-124 947,-136 947,-136 947,-142 941,-148 935,-148"/>
<text text-anchor="middle" x="920" y="-127.5" font-family="Arial" font-size="10.00">Ready</text>
</g>
<!-- WAIT&#45;&gt;READY -->
<g id="edge12" class="edge">
<title>WAIT&#45;&gt;READY</title>
<path fill="none" stroke="blue" d="M776.39,-196.97C808.17,-182.05 852.97,-161.01 883.83,-146.51"/>
<polygon fill="blue" stroke="blue" points="885.37,-149.66 892.93,-142.24 882.4,-143.32 885.37,-149.66"/>
<text text-anchor="middle" x="839.5" y="-185.8" font-family="Arial" font-size="9.00">prepare progress</text>
</g>
<!-- TEARDOWN -->
<g id="node15" class="node">
<title>TEARDOWN</title>
<path fill="white" stroke="black" d="M1518,-186C1518,-186 1453,-186 1453,-186 1447,-186 1441,-180 1441,-174 1441,-174 1441,-162 1441,-162 1441,-156 1447,-150 1453,-150 1453,-150 1518,-150 1518,-150 1524,-150 1530,-156 1530,-162 1530,-162 1530,-174 1530,-174 1530,-180 1524,-186 1518,-186"/>
<text text-anchor="middle" x="1485.5" y="-171" font-family="Arial" font-size="10.00">Teardown</text>
<text text-anchor="middle" x="1485.5" y="-160" font-family="Arial" font-size="10.00">finish progress / </text>
</g>
<!-- HALTED&#45;&gt;TEARDOWN -->
<g id="edge22" class="edge">
<title>HALTED&#45;&gt;TEARDOWN</title>
<path fill="none" stroke="blue" d="M1343.59,-168C1366.82,-168 1401.52,-168 1430.68,-168"/>
<polygon fill="blue" stroke="blue" points="1430.73,-171.5 1440.73,-168 1430.73,-164.5 1430.73,-171.5"/>
<text text-anchor="middle" x="1392.5" y="-170.8" font-family="Arial" font-size="9.00">finish progress</text>
</g>
<!-- SKIPPED -->
<g id="node11" class="node">
<title>SKIPPED</title>
<path fill="white" stroke="black" d="M1331.5,-55C1331.5,-55 1301.5,-55 1301.5,-55 1295.5,-55 1289.5,-49 1289.5,-43 1289.5,-43 1289.5,-31 1289.5,-31 1289.5,-25 1295.5,-19 1301.5,-19 1301.5,-19 1331.5,-19 1331.5,-19 1337.5,-19 1343.5,-25 1343.5,-31 1343.5,-31 1343.5,-43 1343.5,-43 1343.5,-49 1337.5,-55 1331.5,-55"/>
<text text-anchor="middle" x="1316.5" y="-34.5" font-family="Arial" font-size="10.00">Skipped</text>
</g>
<!-- READY&#45;&gt;SKIPPED -->
<g id="edge13" class="edge">
<title>READY&#45;&gt;SKIPPED</title>
<path fill="none" stroke="blue" d="M947.34,-117.89C997.27,-95.69 1109.66,-49.39 1210,-34 1232.83,-30.5 1258.75,-31.17 1279.18,-32.76"/>
<polygon fill="blue" stroke="blue" points="1279.06,-36.26 1289.32,-33.65 1279.67,-29.29 1279.06,-36.26"/>
<text text-anchor="middle" x="1123" y="-88.8" font-family="Arial" font-size="9.00">run progress</text>
<text text-anchor="middle" x="1123" y="-78.8" font-family="Arial" font-size="9.00">[should_skip]</text>
</g>
<!-- RUNNING -->
<g id="node12" class="node">
<title>RUNNING</title>
<path fill="white" stroke="black" d="M1180,-148C1180,-148 1066,-148 1066,-148 1060,-148 1054,-142 1054,-136 1054,-136 1054,-124 1054,-124 1054,-118 1060,-112 1066,-112 1066,-112 1180,-112 1180,-112 1186,-112 1192,-118 1192,-124 1192,-124 1192,-136 1192,-136 1192,-142 1186,-148 1180,-148"/>
<text text-anchor="middle" x="1123" y="-133" font-family="Arial" font-size="10.00">Running</text>
<text text-anchor="middle" x="1123" y="-122" font-family="Arial" font-size="10.00">entry / on_enter_RUNNING</text>
</g>
<!-- READY&#45;&gt;RUNNING -->
<g id="edge14" class="edge">
<title>READY&#45;&gt;RUNNING</title>
<path fill="none" stroke="blue" d="M947.28,-130C971.78,-130 1009.59,-130 1043.77,-130"/>
<polygon fill="blue" stroke="blue" points="1043.77,-133.5 1053.77,-130 1043.77,-126.5 1043.77,-133.5"/>
<text text-anchor="middle" x="1000.5" y="-132.8" font-family="Arial" font-size="9.00">run progress</text>
</g>
<!-- SKIPPED&#45;&gt;TEARDOWN -->
<g id="edge21" class="edge">
<title>SKIPPED&#45;&gt;TEARDOWN</title>
<path fill="none" stroke="blue" d="M1343.57,-55.04C1365.22,-70.25 1396.63,-92.87 1423,-114 1434.4,-123.13 1446.56,-133.64 1457.03,-142.94"/>
<polygon fill="blue" stroke="blue" points="1454.89,-145.72 1464.67,-149.78 1459.55,-140.5 1454.89,-145.72"/>
<text text-anchor="middle" x="1392.5" y="-116.8" font-family="Arial" font-size="9.00">finish progress</text>
</g>
<!-- RUNNING&#45;&gt;HALTED -->
<g id="edge16" class="edge">
<title>RUNNING&#45;&gt;HALTED</title>
<path fill="none" stroke="blue" d="M1175.86,-148.12C1187.01,-151.49 1198.81,-154.69 1210,-157 1232.73,-161.7 1258.65,-164.44 1279.11,-166.01"/>
<polygon fill="blue" stroke="blue" points="1279.04,-169.51 1289.26,-166.73 1279.53,-162.53 1279.04,-169.51"/>
<text text-anchor="middle" x="1240.5" y="-178.8" font-family="Arial" font-size="9.00">run progress</text>
<text text-anchor="middle" x="1240.5" y="-168.8" font-family="Arial" font-size="9.00">[should_halt]</text>
</g>
<!-- RUNNING&#45;&gt;HALTED -->
<g id="edge19" class="edge">
<title>RUNNING&#45;&gt;HALTED</title>
<path fill="none" stroke="blue" d="M1192.3,-132.44C1217.42,-134.64 1245.86,-138.67 1271,-146 1273.97,-146.86 1276.97,-147.92 1279.95,-149.09"/>
<polygon fill="blue" stroke="blue" points="1278.72,-152.37 1289.29,-153.16 1281.52,-145.96 1278.72,-152.37"/>
<text text-anchor="middle" x="1240.5" y="-148.8" font-family="Arial" font-size="9.00">halt</text>
</g>
<!-- RUNNING&#45;&gt;SKIPPED -->
<g id="edge18" class="edge">
<title>RUNNING&#45;&gt;SKIPPED</title>
<path fill="none" stroke="blue" d="M1137.95,-111.84C1153.39,-93.2 1180.07,-65 1210,-51 1231.48,-40.96 1257.93,-37.46 1278.97,-36.48"/>
<polygon fill="blue" stroke="blue" points="1279.24,-39.97 1289.13,-36.17 1279.03,-32.98 1279.24,-39.97"/>
<text text-anchor="middle" x="1240.5" y="-53.8" font-family="Arial" font-size="9.00">skip</text>
</g>
<!-- FAILED -->
<g id="node13" class="node">
<title>FAILED</title>
<path fill="white" stroke="black" d="M1331.5,-131C1331.5,-131 1301.5,-131 1301.5,-131 1295.5,-131 1289.5,-125 1289.5,-119 1289.5,-119 1289.5,-107 1289.5,-107 1289.5,-101 1295.5,-95 1301.5,-95 1301.5,-95 1331.5,-95 1331.5,-95 1337.5,-95 1343.5,-101 1343.5,-107 1343.5,-107 1343.5,-119 1343.5,-119 1343.5,-125 1337.5,-131 1331.5,-131"/>
<text text-anchor="middle" x="1316.5" y="-110.5" font-family="Arial" font-size="10.00">Failed</text>
</g>
<!-- RUNNING&#45;&gt;FAILED -->
<g id="edge15" class="edge">
<title>RUNNING&#45;&gt;FAILED</title>
<path fill="none" stroke="blue" d="M1143.01,-111.88C1159.33,-97.67 1184.23,-78.99 1210,-71 1235.9,-62.97 1245.81,-60.99 1271,-71 1279.99,-74.57 1288.21,-80.92 1295.08,-87.61"/>
<polygon fill="blue" stroke="blue" points="1292.56,-90.04 1301.97,-94.9 1297.64,-85.23 1292.56,-90.04"/>
<text text-anchor="middle" x="1240.5" y="-83.8" font-family="Arial" font-size="9.00">run progress</text>
<text text-anchor="middle" x="1240.5" y="-73.8" font-family="Arial" font-size="9.00">[should_fail]</text>
</g>
<!-- RUNNING&#45;&gt;FAILED -->
<g id="edge20" class="edge">
<title>RUNNING&#45;&gt;FAILED</title>
<path fill="none" stroke="blue" d="M1192.38,-116.17C1198.32,-115.3 1204.26,-114.56 1210,-114 1232.98,-111.77 1258.9,-111.49 1279.3,-111.79"/>
<polygon fill="blue" stroke="blue" points="1279.35,-115.29 1289.42,-111.99 1279.49,-108.29 1279.35,-115.29"/>
<text text-anchor="middle" x="1240.5" y="-116.8" font-family="Arial" font-size="9.00">fail</text>
</g>
<!-- SUCCESS -->
<g id="node14" class="node">
<title>SUCCESS</title>
<path fill="white" stroke="black" d="M1332,-240C1332,-240 1301,-240 1301,-240 1295,-240 1289,-234 1289,-228 1289,-228 1289,-216 1289,-216 1289,-210 1295,-204 1301,-204 1301,-204 1332,-204 1332,-204 1338,-204 1344,-210 1344,-216 1344,-216 1344,-228 1344,-228 1344,-234 1338,-240 1332,-240"/>
<text text-anchor="middle" x="1316.5" y="-219.5" font-family="Arial" font-size="10.00">Success</text>
</g>
<!-- RUNNING&#45;&gt;SUCCESS -->
<g id="edge17" class="edge">
<title>RUNNING&#45;&gt;SUCCESS</title>
<path fill="none" stroke="blue" d="M1145.79,-148.11C1162.49,-161.24 1186.58,-178.63 1210,-190 1231.9,-200.63 1258.08,-208.59 1278.88,-213.92"/>
<polygon fill="blue" stroke="blue" points="1278.07,-217.33 1288.62,-216.32 1279.75,-210.53 1278.07,-217.33"/>
<text text-anchor="middle" x="1240.5" y="-214.8" font-family="Arial" font-size="9.00">run progress</text>
</g>
<!-- FAILED&#45;&gt;TEARDOWN -->
<g id="edge23" class="edge">
<title>FAILED&#45;&gt;TEARDOWN</title>
<path fill="none" stroke="blue" d="M1343.59,-121.59C1366.92,-129.28 1401.83,-140.77 1431.06,-150.4"/>
<polygon fill="blue" stroke="blue" points="1430.14,-153.78 1440.73,-153.59 1432.33,-147.13 1430.14,-153.78"/>
<text text-anchor="middle" x="1392.5" y="-150.8" font-family="Arial" font-size="9.00">finish progress</text>
</g>
<!-- SUCCESS&#45;&gt;TEARDOWN -->
<g id="edge24" class="edge">
<title>SUCCESS&#45;&gt;TEARDOWN</title>
<path fill="none" stroke="blue" d="M1344.33,-213.32C1367.69,-205.77 1402.26,-194.59 1431.21,-185.23"/>
<polygon fill="blue" stroke="blue" points="1432.36,-188.54 1440.8,-182.13 1430.2,-181.88 1432.36,-188.54"/>
<text text-anchor="middle" x="1392.5" y="-210.8" font-family="Arial" font-size="9.00">finish progress</text>
</g>
<!-- TEARDOWN&#45;&gt;DEAD -->
<g id="edge25" class="edge">
<title>TEARDOWN&#45;&gt;DEAD</title>
<path fill="none" stroke="blue" d="M1512.77,-186.02C1541.06,-205.44 1586.37,-236.53 1618.65,-258.68"/>
<polygon fill="blue" stroke="blue" points="1616.74,-261.62 1626.97,-264.39 1620.7,-255.85 1616.74,-261.62"/>
<text text-anchor="middle" x="1578.5" y="-253.8" font-family="Arial" font-size="9.00">finish progress</text>
</g>
</g>
</svg>
