<?xml version="1.0" encoding="UTF-8" standalone="no"?>
<!DOCTYPE svg PUBLIC "-//W3C//DTD SVG 1.1//EN"
 "http://www.w3.org/Graphics/SVG/1.1/DTD/svg11.dtd">
<!-- Generated by graphviz version 2.43.0 (0)
 -->
<!-- Title: list Pages: 1 -->
<svg width="401pt" height="247pt"
 viewBox="0.00 0.00 401.00 247.00" xmlns="http://www.w3.org/2000/svg" xmlns:xlink="http://www.w3.org/1999/xlink">
<g id="graph0" class="graph" transform="scale(1 1) rotate(0) translate(4 243)">
<title>list</title>
<polygon fill="white" stroke="transparent" points="-4,4 -4,-243 397,-243 397,4 -4,4"/>
<text text-anchor="middle" x="196.5" y="-7" font-family="Arial" font-size="10.00">ArtifactMachine</text>
<!-- i -->
<g id="node1" class="node">
<title>i</title>
<ellipse fill="black" stroke="black" cx="7" cy="-121" rx="7" ry="7"/>
<text text-anchor="middle" x="7" y="-120.7" font-family="Times,serif" font-size="1.00">i</text>
</g>
<!-- Declared -->
<g id="node2" class="node">
<title>Declared</title>
<path fill="turquoise" stroke="black" stroke-width="2" d="M95,-139C95,-139 63,-139 63,-139 57,-139 51,-133 51,-127 51,-127 51,-115 51,-115 51,-109 57,-103 63,-103 63,-103 95,-103 95,-103 101,-103 107,-109 107,-115 107,-115 107,-127 107,-127 107,-133 101,-139 95,-139"/>
<text text-anchor="middle" x="79" y="-118.5" font-family="Arial" font-size="10.00">Declared</text>
</g>
<!-- i&#45;&gt;Declared -->
<g id="edge1" class="edge">
<title>i&#45;&gt;Declared</title>
<path fill="none" stroke="blue" d="M14.46,-121C20.65,-121 30.54,-121 40.68,-121"/>
<polygon fill="blue" stroke="blue" points="40.79,-124.5 50.79,-121 40.79,-117.5 40.79,-124.5"/>
</g>
<!-- Stale -->
<g id="node3" class="node">
<title>Stale</title>
<path fill="white" stroke="black" d="M246,-139C246,-139 216,-139 216,-139 210,-139 204,-133 204,-127 204,-127 204,-115 204,-115 204,-109 210,-103 216,-103 216,-103 246,-103 246,-103 252,-103 258,-109 258,-115 258,-115 258,-127 258,-127 258,-133 252,-139 246,-139"/>
<text text-anchor="middle" x="231" y="-118.5" font-family="Arial" font-size="10.00">Stale</text>
</g>
<!-- Declared&#45;&gt;Stale -->
<g id="edge2" class="edge">
<title>Declared&#45;&gt;Stale</title>
<path fill="none" stroke="blue" d="M107.16,-121C131.39,-121 167.04,-121 193.7,-121"/>
<polygon fill="blue" stroke="blue" points="193.79,-124.5 203.79,-121 193.79,-117.5 193.79,-124.5"/>
<text text-anchor="middle" x="155.5" y="-133.8" font-family="Arial" font-size="9.00">progress</text>
<text text-anchor="middle" x="155.5" y="-123.8" font-family="Arial" font-size="9.00">[is_stale]</text>
</g>
<!-- ToClean -->
<g id="node4" class="node">
<title>ToClean</title>
<path fill="white" stroke="black" d="M246,-239C246,-239 216,-239 216,-239 210,-239 204,-233 204,-227 204,-227 204,-215 204,-215 204,-209 210,-203 216,-203 216,-203 246,-203 246,-203 252,-203 258,-209 258,-215 258,-215 258,-227 258,-227 258,-233 252,-239 246,-239"/>
<text text-anchor="middle" x="231" y="-218.5" font-family="Arial" font-size="10.00">Toclean</text>
</g>
<!-- Declared&#45;&gt;ToClean -->
<g id="edge3" class="edge">
<title>Declared&#45;&gt;ToClean</title>
<path fill="none" stroke="blue" d="M87.71,-139.18C95.12,-154.57 107.75,-176.13 125,-189 144.95,-203.89 171.88,-211.91 193.47,-216.2"/>
<polygon fill="blue" stroke="blue" points="193.13,-219.7 203.59,-218.02 194.37,-212.81 193.13,-219.7"/>
<text text-anchor="middle" x="155.5" y="-226.8" font-family="Arial" font-size="9.00">progress</text>
<text text-anchor="middle" x="155.5" y="-216.8" font-family="Arial" font-size="9.00">[should_clean]</text>
</g>
<!-- Exists -->
<g id="node5" class="node">
<title>Exists</title>
<path fill="white" stroke="black" d="M246,-85C246,-85 216,-85 216,-85 210,-85 204,-79 204,-73 204,-73 204,-61 204,-61 204,-55 210,-49 216,-49 216,-49 246,-49 246,-49 252,-49 258,-55 258,-61 258,-61 258,-73 258,-73 258,-79 252,-85 246,-85"/>
<text text-anchor="middle" x="231" y="-64.5" font-family="Arial" font-size="10.00">Exists</text>
</g>
<!-- Declared&#45;&gt;Exists -->
<g id="edge4" class="edge">
<title>Declared&#45;&gt;Exists</title>
<path fill="none" stroke="blue" d="M107.16,-105.33C112.94,-102.33 119.09,-99.39 125,-97 147.25,-88 173.18,-80.57 193.7,-75.35"/>
<polygon fill="blue" stroke="blue" points="194.73,-78.7 203.59,-72.9 193.05,-71.91 194.73,-78.7"/>
<text text-anchor="middle" x="155.5" y="-109.8" font-family="Arial" font-size="9.00">progress</text>
<text text-anchor="middle" x="155.5" y="-99.8" font-family="Arial" font-size="9.00">[does_exist]</text>
</g>
<!-- Finished -->
<g id="node6" class="node">
<title>Finished</title>
<path fill="white" stroke="black" d="M377,-59C377,-59 347,-59 347,-59 341,-59 335,-53 335,-47 335,-47 335,-35 335,-35 335,-29 341,-23 347,-23 347,-23 377,-23 377,-23 383,-23 389,-29 389,-35 389,-35 389,-47 389,-47 389,-53 383,-59 377,-59"/>
<path fill="none" stroke="black" d="M381,-63C381,-63 343,-63 343,-63 337,-63 331,-57 331,-51 331,-51 331,-31 331,-31 331,-25 337,-19 343,-19 343,-19 381,-19 381,-19 387,-19 393,-25 393,-31 393,-31 393,-51 393,-51 393,-57 387,-63 381,-63"/>
<text text-anchor="middle" x="362" y="-38.5" font-family="Arial" font-size="10.00">Finished</text>
</g>
<!-- Declared&#45;&gt;Finished -->
<g id="edge5" class="edge">
<title>Declared&#45;&gt;Finished</title>
<path fill="none" stroke="blue" d="M94.62,-102.78C102.89,-93.19 113.79,-81.66 125,-73 156.63,-48.55 165.26,-39.86 204,-30 242.95,-20.09 288.97,-25.2 321.07,-31.34"/>
<polygon fill="blue" stroke="blue" points="320.49,-34.79 330.98,-33.35 321.88,-27.93 320.49,-34.79"/>
<text text-anchor="middle" x="231" y="-32.8" font-family="Arial" font-size="9.00">progress</text>
</g>
<!-- Removed -->
<g id="node7" class="node">
<title>Removed</title>
<path fill="white" stroke="black" d="M379.5,-193C379.5,-193 344.5,-193 344.5,-193 338.5,-193 332.5,-187 332.5,-181 332.5,-181 332.5,-169 332.5,-169 332.5,-163 338.5,-157 344.5,-157 344.5,-157 379.5,-157 379.5,-157 385.5,-157 391.5,-163 391.5,-169 391.5,-169 391.5,-181 391.5,-181 391.5,-187 385.5,-193 379.5,-193"/>
<text text-anchor="middle" x="362" y="-172.5" font-family="Arial" font-size="10.00">Removed</text>
</g>
<!-- Stale&#45;&gt;Removed -->
<g id="edge6" class="edge">
<title>Stale&#45;&gt;Removed</title>
<path fill="none" stroke="blue" d="M258.19,-129.88C274.19,-135.51 294.98,-143.18 313,-151 316.36,-152.46 319.82,-154.03 323.27,-155.66"/>
<polygon fill="blue" stroke="blue" points="321.78,-158.82 332.3,-160.02 324.82,-152.52 321.78,-158.82"/>
<text text-anchor="middle" x="294.5" y="-153.8" font-family="Arial" font-size="9.00">progress</text>
</g>
<!-- ToClean&#45;&gt;Removed -->
<g id="edge7" class="edge">
<title>ToClean&#45;&gt;Removed</title>
<path fill="none" stroke="blue" d="M258.11,-211.69C276.66,-205.07 301.89,-196.08 322.72,-188.65"/>
<polygon fill="blue" stroke="blue" points="324,-191.91 332.24,-185.26 321.65,-185.32 324,-191.91"/>
<text text-anchor="middle" x="294.5" y="-206.8" font-family="Arial" font-size="9.00">progress</text>
</g>
<!-- Exists&#45;&gt;Finished -->
<g id="edge9" class="edge">
<title>Exists&#45;&gt;Finished</title>
<path fill="none" stroke="blue" d="M258.11,-61.74C276.12,-58.11 300.41,-53.21 320.87,-49.09"/>
<polygon fill="blue" stroke="blue" points="321.75,-52.48 330.86,-47.07 320.37,-45.62 321.75,-52.48"/>
<text text-anchor="middle" x="294.5" y="-59.8" font-family="Arial" font-size="9.00">progress</text>
</g>
<!-- Removed&#45;&gt;Declared -->
<g id="edge8" class="edge">
<title>Removed&#45;&gt;Declared</title>
<path fill="none" stroke="blue" d="M332.31,-174.68C287.16,-173.44 197.22,-167.99 125,-145 122.23,-144.12 119.43,-143.07 116.66,-141.91"/>
<polygon fill="blue" stroke="blue" points="117.94,-138.64 107.39,-137.62 115,-145 117.94,-138.64"/>
<text text-anchor="middle" x="231" y="-171.8" font-family="Arial" font-size="9.00">progress</text>
</g>
</g>
</svg>
