<?xml version="1.0" encoding="UTF-8" standalone="no"?>
<!DOCTYPE svg PUBLIC "-//W3C//DTD SVG 1.1//EN"
 "http://www.w3.org/Graphics/SVG/1.1/DTD/svg11.dtd">
<!-- Generated by graphviz version 2.43.0 (0)
 -->
<!-- Title: list Pages: 1 -->
<svg width="1513pt" height="363pt"
 viewBox="0.00 0.00 1513.00 363.00" xmlns="http://www.w3.org/2000/svg" xmlns:xlink="http://www.w3.org/1999/xlink">
<g id="graph0" class="graph" transform="scale(1 1) rotate(0) translate(4 359)">
<title>list</title>
<polygon fill="white" stroke="transparent" points="-4,4 -4,-359 1509,-359 1509,4 -4,4"/>
<text text-anchor="middle" x="752.5" y="-7" font-family="Arial" font-size="10.00">MainMachine</text>
<!-- i -->
<g id="node1" class="node">
<title>i</title>
<ellipse fill="black" stroke="black" cx="7" cy="-327" rx="7" ry="7"/>
<text text-anchor="middle" x="7" y="-326.7" font-family="Times,serif" font-size="1.00">i</text>
</g>
<!-- init -->
<g id="node2" class="node">
<title>init</title>
<path fill="turquoise" stroke="black" stroke-width="2" d="M93,-345C93,-345 63,-345 63,-345 57,-345 51,-339 51,-333 51,-333 51,-321 51,-321 51,-315 57,-309 63,-309 63,-309 93,-309 93,-309 99,-309 105,-315 105,-321 105,-321 105,-333 105,-333 105,-339 99,-345 93,-345"/>
<text text-anchor="middle" x="78" y="-324.5" font-family="Arial" font-size="10.00">Init</text>
</g>
<!-- i&#45;&gt;init -->
<g id="edge1" class="edge">
<title>i&#45;&gt;init</title>
<path fill="none" stroke="blue" d="M14.37,-327C20.57,-327 30.54,-327 40.71,-327"/>
<polygon fill="blue" stroke="blue" points="40.82,-330.5 50.82,-327 40.82,-323.5 40.82,-330.5"/>
</g>
<!-- setup -->
<g id="node3" class="node">
<title>setup</title>
<path fill="white" stroke="black" d="M220,-345C220,-345 190,-345 190,-345 184,-345 178,-339 178,-333 178,-333 178,-321 178,-321 178,-315 184,-309 190,-309 190,-309 220,-309 220,-309 226,-309 232,-315 232,-321 232,-321 232,-333 232,-333 232,-339 226,-345 220,-345"/>
<text text-anchor="middle" x="205" y="-324.5" font-family="Arial" font-size="10.00">Setup</text>
</g>
<!-- init&#45;&gt;setup -->
<g id="edge2" class="edge">
<title>init&#45;&gt;setup</title>
<path fill="none" stroke="blue" d="M105.2,-327C123.37,-327 147.8,-327 167.82,-327"/>
<polygon fill="blue" stroke="blue" points="167.83,-330.5 177.83,-327 167.83,-323.5 167.83,-330.5"/>
<text text-anchor="middle" x="141.5" y="-329.8" font-family="Arial" font-size="9.00">progress</text>
</g>
<!-- plugins -->
<g id="node4" class="node">
<title>plugins</title>
<path fill="white" stroke="black" d="M347,-317C347,-317 317,-317 317,-317 311,-317 305,-311 305,-305 305,-305 305,-293 305,-293 305,-287 311,-281 317,-281 317,-281 347,-281 347,-281 353,-281 359,-287 359,-293 359,-293 359,-305 359,-305 359,-311 353,-317 347,-317"/>
<text text-anchor="middle" x="332" y="-296.5" font-family="Arial" font-size="10.00">Plugins</text>
</g>
<!-- setup&#45;&gt;plugins -->
<g id="edge3" class="edge">
<title>setup&#45;&gt;plugins</title>
<path fill="none" stroke="blue" d="M232.2,-321.13C250.37,-317.06 274.8,-311.59 294.82,-307.1"/>
<polygon fill="blue" stroke="blue" points="295.84,-310.46 304.83,-304.86 294.31,-303.63 295.84,-310.46"/>
<text text-anchor="middle" x="268.5" y="-320.8" font-family="Arial" font-size="9.00">progress</text>
</g>
<!-- failed -->
<g id="node5" class="node">
<title>failed</title>
<path fill="white" stroke="black" d="M1098,-203C1098,-203 1068,-203 1068,-203 1062,-203 1056,-197 1056,-191 1056,-191 1056,-179 1056,-179 1056,-173 1062,-167 1068,-167 1068,-167 1098,-167 1098,-167 1104,-167 1110,-173 1110,-179 1110,-179 1110,-191 1110,-191 1110,-197 1104,-203 1098,-203"/>
<text text-anchor="middle" x="1083" y="-182.5" font-family="Arial" font-size="10.00">Failed</text>
</g>
<!-- setup&#45;&gt;failed -->
<g id="edge4" class="edge">
<title>setup&#45;&gt;failed</title>
<path fill="none" stroke="blue" d="M232.18,-332.99C257.36,-338.23 296.58,-345 331,-345 331,-345 331,-345 981,-345 1042.71,-345 1068.24,-258.83 1077.46,-212.97"/>
<polygon fill="blue" stroke="blue" points="1080.92,-213.52 1079.33,-203.04 1074.04,-212.22 1080.92,-213.52"/>
<text text-anchor="middle" x="649.5" y="-347.8" font-family="Arial" font-size="9.00">fail</text>
</g>
<!-- plugins&#45;&gt;failed -->
<g id="edge6" class="edge">
<title>plugins&#45;&gt;failed</title>
<path fill="none" stroke="blue" d="M359.31,-301.66C384.58,-303.99 423.86,-307 458,-307 458,-307 458,-307 981,-307 1029.76,-307 1059.43,-248.46 1073.06,-212.48"/>
<polygon fill="blue" stroke="blue" points="1076.38,-213.6 1076.48,-203 1069.8,-211.22 1076.38,-213.6"/>
<text text-anchor="middle" x="719.5" y="-309.8" font-family="Arial" font-size="9.00">fail</text>
</g>
<!-- cli -->
<g id="node6" class="node">
<title>cli</title>
<path fill="white" stroke="black" d="M474,-279C474,-279 444,-279 444,-279 438,-279 432,-273 432,-267 432,-267 432,-255 432,-255 432,-249 438,-243 444,-243 444,-243 474,-243 474,-243 480,-243 486,-249 486,-255 486,-255 486,-267 486,-267 486,-273 480,-279 474,-279"/>
<text text-anchor="middle" x="459" y="-258.5" font-family="Arial" font-size="10.00">Cli</text>
</g>
<!-- plugins&#45;&gt;cli -->
<g id="edge5" class="edge">
<title>plugins&#45;&gt;cli</title>
<path fill="none" stroke="blue" d="M359.4,-288.99C365.17,-286.92 371.27,-284.82 377,-283 391.64,-278.36 407.96,-273.81 422.09,-270.06"/>
<polygon fill="blue" stroke="blue" points="423.15,-273.4 431.94,-267.49 421.38,-266.63 423.15,-273.4"/>
<text text-anchor="middle" x="395.5" y="-285.8" font-family="Arial" font-size="9.00">progress</text>
</g>
<!-- report -->
<g id="node11" class="node">
<title>report</title>
<path fill="white" stroke="black" d="M1225,-67C1225,-67 1195,-67 1195,-67 1189,-67 1183,-61 1183,-55 1183,-55 1183,-43 1183,-43 1183,-37 1189,-31 1195,-31 1195,-31 1225,-31 1225,-31 1231,-31 1237,-37 1237,-43 1237,-43 1237,-55 1237,-55 1237,-61 1231,-67 1225,-67"/>
<text text-anchor="middle" x="1210" y="-46.5" font-family="Arial" font-size="10.00">Report</text>
</g>
<!-- failed&#45;&gt;report -->
<g id="edge18" class="edge">
<title>failed&#45;&gt;report</title>
<path fill="none" stroke="blue" d="M1100.6,-166.94C1122.36,-143.27 1160.66,-101.59 1185.42,-74.65"/>
<polygon fill="blue" stroke="blue" points="1188.14,-76.87 1192.33,-67.13 1182.99,-72.13 1188.14,-76.87"/>
<text text-anchor="middle" x="1146.5" y="-140.8" font-family="Arial" font-size="9.00">progress</text>
</g>
<!-- cli&#45;&gt;failed -->
<g id="edge8" class="edge">
<title>cli&#45;&gt;failed</title>
<path fill="none" stroke="blue" d="M486.34,-261C511.63,-261 550.93,-261 585,-261 585,-261 585,-261 981,-261 1015.05,-261 1044.93,-233.08 1063.19,-211.08"/>
<polygon fill="blue" stroke="blue" points="1066.12,-213.02 1069.6,-203.01 1060.64,-208.66 1066.12,-213.02"/>
<text text-anchor="middle" x="789.5" y="-263.8" font-family="Arial" font-size="9.00">fail</text>
</g>
<!-- reporter -->
<g id="node7" class="node">
<title>reporter</title>
<path fill="white" stroke="black" d="M601,-233C601,-233 571,-233 571,-233 565,-233 559,-227 559,-221 559,-221 559,-209 559,-209 559,-203 565,-197 571,-197 571,-197 601,-197 601,-197 607,-197 613,-203 613,-209 613,-209 613,-221 613,-221 613,-227 607,-233 601,-233"/>
<text text-anchor="middle" x="586" y="-212.5" font-family="Arial" font-size="10.00">Reporter</text>
</g>
<!-- cli&#45;&gt;reporter -->
<g id="edge7" class="edge">
<title>cli&#45;&gt;reporter</title>
<path fill="none" stroke="blue" d="M486.04,-245.5C491.83,-242.42 498.03,-239.4 504,-237 518.36,-231.23 534.75,-226.46 549.01,-222.85"/>
<polygon fill="blue" stroke="blue" points="550.07,-226.2 558.96,-220.43 548.42,-219.39 550.07,-226.2"/>
<text text-anchor="middle" x="522.5" y="-239.8" font-family="Arial" font-size="9.00">progress</text>
</g>
<!-- reporter&#45;&gt;failed -->
<g id="edge10" class="edge">
<title>reporter&#45;&gt;failed</title>
<path fill="none" stroke="blue" d="M613.17,-217.53C639.69,-219.88 681.9,-223 718.5,-223 718.5,-223 718.5,-223 981,-223 1003.92,-223 1028,-214.32 1046.89,-205.26"/>
<polygon fill="blue" stroke="blue" points="1048.64,-208.3 1056,-200.68 1045.49,-202.05 1048.64,-208.3"/>
<text text-anchor="middle" x="853" y="-225.8" font-family="Arial" font-size="9.00">fail</text>
</g>
<!-- commands -->
<g id="node8" class="node">
<title>commands</title>
<path fill="white" stroke="black" d="M741,-195C741,-195 698,-195 698,-195 692,-195 686,-189 686,-183 686,-183 686,-171 686,-171 686,-165 692,-159 698,-159 698,-159 741,-159 741,-159 747,-159 753,-165 753,-171 753,-171 753,-183 753,-183 753,-189 747,-195 741,-195"/>
<text text-anchor="middle" x="719.5" y="-174.5" font-family="Arial" font-size="10.00">Commands</text>
</g>
<!-- reporter&#45;&gt;commands -->
<g id="edge9" class="edge">
<title>reporter&#45;&gt;commands</title>
<path fill="none" stroke="blue" d="M613.38,-204.91C619.15,-202.84 625.25,-200.76 631,-199 645.46,-194.57 661.46,-190.35 675.78,-186.81"/>
<polygon fill="blue" stroke="blue" points="676.98,-190.12 685.87,-184.36 675.33,-183.32 676.98,-190.12"/>
<text text-anchor="middle" x="649.5" y="-201.8" font-family="Arial" font-size="9.00">progress</text>
</g>
<!-- commands&#45;&gt;failed -->
<g id="edge12" class="edge">
<title>commands&#45;&gt;failed</title>
<path fill="none" stroke="blue" d="M753.22,-177.72C820.67,-179.22 974.76,-182.63 1045.4,-184.19"/>
<polygon fill="blue" stroke="blue" points="1045.52,-187.69 1055.59,-184.42 1045.67,-180.7 1045.52,-187.69"/>
<text text-anchor="middle" x="916.5" y="-184.8" font-family="Arial" font-size="9.00">fail</text>
</g>
<!-- tasks -->
<g id="node9" class="node">
<title>tasks</title>
<path fill="white" stroke="black" d="M868,-129C868,-129 838,-129 838,-129 832,-129 826,-123 826,-117 826,-117 826,-105 826,-105 826,-99 832,-93 838,-93 838,-93 868,-93 868,-93 874,-93 880,-99 880,-105 880,-105 880,-117 880,-117 880,-123 874,-129 868,-129"/>
<text text-anchor="middle" x="853" y="-108.5" font-family="Arial" font-size="10.00">Tasks</text>
</g>
<!-- commands&#45;&gt;tasks -->
<g id="edge11" class="edge">
<title>commands&#45;&gt;tasks</title>
<path fill="none" stroke="blue" d="M753.01,-160.69C772.31,-151 796.8,-138.7 816.59,-128.77"/>
<polygon fill="blue" stroke="blue" points="818.24,-131.86 825.6,-124.25 815.1,-125.61 818.24,-131.86"/>
<text text-anchor="middle" x="789.5" y="-152.8" font-family="Arial" font-size="9.00">progress</text>
</g>
<!-- tasks&#45;&gt;failed -->
<g id="edge13" class="edge">
<title>tasks&#45;&gt;failed</title>
<path fill="none" stroke="blue" d="M880.12,-116.41C910.91,-123.1 963.4,-135.54 1007,-151 1020.21,-155.68 1034.3,-161.76 1046.65,-167.49"/>
<polygon fill="blue" stroke="blue" points="1045.19,-170.66 1055.72,-171.76 1048.17,-164.33 1045.19,-170.66"/>
<text text-anchor="middle" x="980" y="-163.8" font-family="Arial" font-size="9.00">progress</text>
<text text-anchor="middle" x="980" y="-153.8" font-family="Arial" font-size="9.00">[should_fail]</text>
</g>
<!-- tasks&#45;&gt;failed -->
<g id="edge15" class="edge">
<title>tasks&#45;&gt;failed</title>
<path fill="none" stroke="blue" d="M880,-107.86C911.36,-105.15 965.07,-103.97 1007,-121 1027.34,-129.26 1046.12,-145.31 1059.8,-159.27"/>
<polygon fill="blue" stroke="blue" points="1057.45,-161.87 1066.86,-166.74 1062.54,-157.07 1057.45,-161.87"/>
<text text-anchor="middle" x="980" y="-123.8" font-family="Arial" font-size="9.00">fail</text>
</g>
<!-- run -->
<g id="node10" class="node">
<title>run</title>
<path fill="white" stroke="black" d="M995,-55C995,-55 965,-55 965,-55 959,-55 953,-49 953,-43 953,-43 953,-31 953,-31 953,-25 959,-19 965,-19 965,-19 995,-19 995,-19 1001,-19 1007,-25 1007,-31 1007,-31 1007,-43 1007,-43 1007,-49 1001,-55 995,-55"/>
<text text-anchor="middle" x="980" y="-34.5" font-family="Arial" font-size="10.00">Run</text>
</g>
<!-- tasks&#45;&gt;run -->
<g id="edge14" class="edge">
<title>tasks&#45;&gt;run</title>
<path fill="none" stroke="blue" d="M868.82,-92.86C876.74,-84.1 887.09,-74 898,-67 911.75,-58.19 928.45,-51.45 943.11,-46.61"/>
<polygon fill="blue" stroke="blue" points="944.37,-49.88 952.87,-43.56 942.28,-43.2 944.37,-49.88"/>
<text text-anchor="middle" x="916.5" y="-69.8" font-family="Arial" font-size="9.00">progress</text>
</g>
<!-- run&#45;&gt;failed -->
<g id="edge17" class="edge">
<title>run&#45;&gt;failed</title>
<path fill="none" stroke="blue" d="M1007.25,-46C1017.99,-50.8 1029.8,-57.68 1038,-67 1060.6,-92.68 1072.01,-131.04 1077.46,-156.99"/>
<polygon fill="blue" stroke="blue" points="1074.06,-157.8 1079.4,-166.95 1080.93,-156.47 1074.06,-157.8"/>
<text text-anchor="middle" x="1031.5" y="-69.8" font-family="Arial" font-size="9.00">fail</text>
</g>
<!-- run&#45;&gt;report -->
<g id="edge16" class="edge">
<title>run&#45;&gt;report</title>
<path fill="none" stroke="blue" d="M1007.15,-38.38C1047.85,-40.52 1126.43,-44.65 1172.63,-47.09"/>
<polygon fill="blue" stroke="blue" points="1172.63,-50.59 1182.8,-47.62 1173,-43.6 1172.63,-50.59"/>
<text text-anchor="middle" x="1083" y="-46.8" font-family="Arial" font-size="9.00">progress</text>
</g>
<!-- shutdown -->
<g id="node12" class="node">
<title>shutdown</title>
<path fill="white" stroke="black" d="M1358,-67C1358,-67 1322,-67 1322,-67 1316,-67 1310,-61 1310,-55 1310,-55 1310,-43 1310,-43 1310,-37 1316,-31 1322,-31 1322,-31 1358,-31 1358,-31 1364,-31 1370,-37 1370,-43 1370,-43 1370,-55 1370,-55 1370,-61 1364,-67 1358,-67"/>
<text text-anchor="middle" x="1340" y="-46.5" font-family="Arial" font-size="10.00">Shutdown</text>
</g>
<!-- report&#45;&gt;shutdown -->
<g id="edge19" class="edge">
<title>report&#45;&gt;shutdown</title>
<path fill="none" stroke="blue" d="M1237.21,-49C1255.15,-49 1279.26,-49 1299.51,-49"/>
<polygon fill="blue" stroke="blue" points="1299.69,-52.5 1309.69,-49 1299.69,-45.5 1299.69,-52.5"/>
<text text-anchor="middle" x="1273.5" y="-51.8" font-family="Arial" font-size="9.00">progress</text>
</g>
<!-- finished -->
<g id="node13" class="node">
<title>finished</title>
<path fill="white" stroke="black" d="M1489,-67C1489,-67 1459,-67 1459,-67 1453,-67 1447,-61 1447,-55 1447,-55 1447,-43 1447,-43 1447,-37 1453,-31 1459,-31 1459,-31 1489,-31 1489,-31 1495,-31 1501,-37 1501,-43 1501,-43 1501,-55 1501,-55 1501,-61 1495,-67 1489,-67"/>
<path fill="none" stroke="black" d="M1493,-71C1493,-71 1455,-71 1455,-71 1449,-71 1443,-65 1443,-59 1443,-59 1443,-39 1443,-39 1443,-33 1449,-27 1455,-27 1455,-27 1493,-27 1493,-27 1499,-27 1505,-33 1505,-39 1505,-39 1505,-59 1505,-59 1505,-65 1499,-71 1493,-71"/>
<text text-anchor="middle" x="1474" y="-46.5" font-family="Arial" font-size="10.00">Finished</text>
</g>
<!-- shutdown&#45;&gt;finished -->
<g id="edge20" class="edge">
<title>shutdown&#45;&gt;finished</title>
<path fill="none" stroke="blue" d="M1370.3,-49C1388.66,-49 1412.59,-49 1432.73,-49"/>
<polygon fill="blue" stroke="blue" points="1432.87,-52.5 1442.87,-49 1432.87,-45.5 1432.87,-52.5"/>
<text text-anchor="middle" x="1406.5" y="-51.8" font-family="Arial" font-size="9.00">progress</text>
</g>
</g>
</svg>
