<?xml version="1.0" encoding="UTF-8" standalone="no"?>
<!DOCTYPE svg PUBLIC "-//W3C//DTD SVG 1.1//EN"
 "http://www.w3.org/Graphics/SVG/1.1/DTD/svg11.dtd">
<!-- Generated by graphviz version 2.43.0 (0)
 -->
<!-- Title: list Pages: 1 -->
<svg width="1133pt" height="277pt"
 viewBox="0.00 0.00 1133.00 277.00" xmlns="http://www.w3.org/2000/svg" xmlns:xlink="http://www.w3.org/1999/xlink">
<g id="graph0" class="graph" transform="scale(1 1) rotate(0) translate(4 273)">
<title>list</title>
<polygon fill="white" stroke="transparent" points="-4,4 -4,-273 1129,-273 1129,4 -4,4"/>
<text text-anchor="middle" x="562.5" y="-7" font-family="Arial" font-size="10.00">OverlordMachine</text>
<!-- i -->
<g id="node1" class="node">
<title>i</title>
<ellipse fill="black" stroke="black" cx="7" cy="-246" rx="7" ry="7"/>
<text text-anchor="middle" x="7" y="-245.7" font-family="Times,serif" font-size="1.00">i</text>
</g>
<!-- init -->
<g id="node2" class="node">
<title>init</title>
<path fill="turquoise" stroke="black" stroke-width="2" d="M93,-264C93,-264 63,-264 63,-264 57,-264 51,-258 51,-252 51,-252 51,-240 51,-240 51,-234 57,-228 63,-228 63,-228 93,-228 93,-228 99,-228 105,-234 105,-240 105,-240 105,-252 105,-252 105,-258 99,-264 93,-264"/>
<text text-anchor="middle" x="78" y="-243.5" font-family="Arial" font-size="10.00">Init</text>
</g>
<!-- i&#45;&gt;init -->
<g id="edge1" class="edge">
<title>i&#45;&gt;init</title>
<path fill="none" stroke="blue" d="M14.37,-246C20.57,-246 30.54,-246 40.71,-246"/>
<polygon fill="blue" stroke="blue" points="40.82,-249.5 50.82,-246 40.82,-242.5 40.82,-249.5"/>
</g>
<!-- constants -->
<g id="node3" class="node">
<title>constants</title>
<path fill="white" stroke="black" d="M228,-264C228,-264 190,-264 190,-264 184,-264 178,-258 178,-252 178,-252 178,-240 178,-240 178,-234 184,-228 190,-228 190,-228 228,-228 228,-228 234,-228 240,-234 240,-240 240,-240 240,-252 240,-252 240,-258 234,-264 228,-264"/>
<text text-anchor="middle" x="209" y="-243.5" font-family="Arial" font-size="10.00">Constants</text>
</g>
<!-- init&#45;&gt;constants -->
<g id="edge2" class="edge">
<title>init&#45;&gt;constants</title>
<path fill="none" stroke="blue" d="M105.11,-246C123.04,-246 147.19,-246 167.59,-246"/>
<polygon fill="blue" stroke="blue" points="167.86,-249.5 177.86,-246 167.86,-242.5 167.86,-249.5"/>
<text text-anchor="middle" x="141.5" y="-248.8" font-family="Arial" font-size="9.00">progress</text>
</g>
<!-- config_file -->
<g id="node4" class="node">
<title>config_file</title>
<path fill="white" stroke="black" d="M362,-231C362,-231 325,-231 325,-231 319,-231 313,-225 313,-219 313,-219 313,-207 313,-207 313,-201 319,-195 325,-195 325,-195 362,-195 362,-195 368,-195 374,-201 374,-207 374,-207 374,-219 374,-219 374,-225 368,-231 362,-231"/>
<text text-anchor="middle" x="343.5" y="-210.5" font-family="Arial" font-size="10.00">Config file</text>
</g>
<!-- constants&#45;&gt;config_file -->
<g id="edge3" class="edge">
<title>constants&#45;&gt;config_file</title>
<path fill="none" stroke="blue" d="M240.07,-238.51C258.62,-233.89 282.63,-227.91 302.74,-222.9"/>
<polygon fill="blue" stroke="blue" points="303.69,-226.27 312.55,-220.46 302,-219.48 303.69,-226.27"/>
<text text-anchor="middle" x="276.5" y="-236.8" font-family="Arial" font-size="9.00">progress</text>
</g>
<!-- failed -->
<g id="node5" class="node">
<title>failed</title>
<path fill="white" stroke="black" d="M978,-147C978,-147 948,-147 948,-147 942,-147 936,-141 936,-135 936,-135 936,-123 936,-123 936,-117 942,-111 948,-111 948,-111 978,-111 978,-111 984,-111 990,-117 990,-123 990,-123 990,-135 990,-135 990,-141 984,-147 978,-147"/>
<text text-anchor="middle" x="963" y="-126.5" font-family="Arial" font-size="10.00">Failed</text>
</g>
<!-- constants&#45;&gt;failed -->
<g id="edge4" class="edge">
<title>constants&#45;&gt;failed</title>
<path fill="none" stroke="blue" d="M240.18,-250.66C266.98,-254.39 307.25,-259 342.5,-259 342.5,-259 342.5,-259 861,-259 912.42,-259 941.45,-194.79 954.17,-156.62"/>
<polygon fill="blue" stroke="blue" points="957.51,-157.67 957.19,-147.08 950.83,-155.55 957.51,-157.67"/>
<text text-anchor="middle" x="603.5" y="-261.8" font-family="Arial" font-size="9.00">fail</text>
</g>
<!-- config_file&#45;&gt;failed -->
<g id="edge6" class="edge">
<title>config_file&#45;&gt;failed</title>
<path fill="none" stroke="blue" d="M374.1,-213C400.15,-213 439.09,-213 473,-213 473,-213 473,-213 861,-213 897.52,-213 927.87,-180.14 945.48,-155.52"/>
<polygon fill="blue" stroke="blue" points="948.4,-157.45 951.16,-147.23 942.62,-153.5 948.4,-157.45"/>
<text text-anchor="middle" x="669.5" y="-215.8" font-family="Arial" font-size="9.00">fail</text>
</g>
<!-- logging -->
<g id="node6" class="node">
<title>logging</title>
<path fill="white" stroke="black" d="M489,-185C489,-185 459,-185 459,-185 453,-185 447,-179 447,-173 447,-173 447,-161 447,-161 447,-155 453,-149 459,-149 459,-149 489,-149 489,-149 495,-149 501,-155 501,-161 501,-161 501,-173 501,-173 501,-179 495,-185 489,-185"/>
<text text-anchor="middle" x="474" y="-164.5" font-family="Arial" font-size="10.00">Logging</text>
</g>
<!-- config_file&#45;&gt;logging -->
<g id="edge5" class="edge">
<title>config_file&#45;&gt;logging</title>
<path fill="none" stroke="blue" d="M374.24,-196.82C380.03,-194 386.13,-191.25 392,-189 406.34,-183.5 422.61,-178.79 436.78,-175.17"/>
<polygon fill="blue" stroke="blue" points="437.8,-178.52 446.67,-172.72 436.12,-171.72 437.8,-178.52"/>
<text text-anchor="middle" x="410.5" y="-191.8" font-family="Arial" font-size="9.00">progress</text>
</g>
<!-- finished -->
<g id="node10" class="node">
<title>finished</title>
<path fill="white" stroke="black" d="M1109,-67C1109,-67 1079,-67 1079,-67 1073,-67 1067,-61 1067,-55 1067,-55 1067,-43 1067,-43 1067,-37 1073,-31 1079,-31 1079,-31 1109,-31 1109,-31 1115,-31 1121,-37 1121,-43 1121,-43 1121,-55 1121,-55 1121,-61 1115,-67 1109,-67"/>
<path fill="none" stroke="black" d="M1113,-71C1113,-71 1075,-71 1075,-71 1069,-71 1063,-65 1063,-59 1063,-59 1063,-39 1063,-39 1063,-33 1069,-27 1075,-27 1075,-27 1113,-27 1113,-27 1119,-27 1125,-33 1125,-39 1125,-39 1125,-59 1125,-59 1125,-65 1119,-71 1113,-71"/>
<text text-anchor="middle" x="1094" y="-46.5" font-family="Arial" font-size="10.00">Finished</text>
</g>
<!-- failed&#45;&gt;finished -->
<g id="edge15" class="edge">
<title>failed&#45;&gt;finished</title>
<path fill="none" stroke="blue" d="M990.11,-112.81C1008.53,-101.39 1033.52,-85.88 1054.27,-73.02"/>
<polygon fill="blue" stroke="blue" points="1056.21,-75.94 1062.86,-67.69 1052.52,-69.99 1056.21,-75.94"/>
<text text-anchor="middle" x="1026.5" y="-103.8" font-family="Arial" font-size="9.00">progress</text>
</g>
<!-- logging&#45;&gt;failed -->
<g id="edge8" class="edge">
<title>logging&#45;&gt;failed</title>
<path fill="none" stroke="blue" d="M501.34,-169.62C527.1,-171.95 567.46,-175 602.5,-175 602.5,-175 602.5,-175 861,-175 885.28,-175 910.14,-163.85 929.12,-152.53"/>
<polygon fill="blue" stroke="blue" points="931.04,-155.45 937.66,-147.18 927.33,-149.52 931.04,-155.45"/>
<text text-anchor="middle" x="733" y="-177.8" font-family="Arial" font-size="9.00">fail</text>
</g>
<!-- locations -->
<g id="node7" class="node">
<title>locations</title>
<path fill="white" stroke="black" d="M621,-147C621,-147 586,-147 586,-147 580,-147 574,-141 574,-135 574,-135 574,-123 574,-123 574,-117 580,-111 586,-111 586,-111 621,-111 621,-111 627,-111 633,-117 633,-123 633,-123 633,-135 633,-135 633,-141 627,-147 621,-147"/>
<text text-anchor="middle" x="603.5" y="-126.5" font-family="Arial" font-size="10.00">Locations</text>
</g>
<!-- logging&#45;&gt;locations -->
<g id="edge7" class="edge">
<title>logging&#45;&gt;locations</title>
<path fill="none" stroke="blue" d="M501.39,-156.96C507.16,-154.89 513.26,-152.8 519,-151 533.51,-146.46 549.62,-142.07 563.79,-138.41"/>
<polygon fill="blue" stroke="blue" points="564.89,-141.75 573.72,-135.89 563.16,-134.96 564.89,-141.75"/>
<text text-anchor="middle" x="537.5" y="-153.8" font-family="Arial" font-size="9.00">progress</text>
</g>
<!-- locations&#45;&gt;failed -->
<g id="edge10" class="edge">
<title>locations&#45;&gt;failed</title>
<path fill="none" stroke="blue" d="M633.15,-129C697.61,-129 853.97,-129 925.36,-129"/>
<polygon fill="blue" stroke="blue" points="925.66,-132.5 935.66,-129 925.66,-125.5 925.66,-132.5"/>
<text text-anchor="middle" x="796.5" y="-131.8" font-family="Arial" font-size="9.00">fail</text>
</g>
<!-- shared -->
<g id="node8" class="node">
<title>shared</title>
<path fill="white" stroke="black" d="M748,-101C748,-101 718,-101 718,-101 712,-101 706,-95 706,-89 706,-89 706,-77 706,-77 706,-71 712,-65 718,-65 718,-65 748,-65 748,-65 754,-65 760,-71 760,-77 760,-77 760,-89 760,-89 760,-95 754,-101 748,-101"/>
<text text-anchor="middle" x="733" y="-80.5" font-family="Arial" font-size="10.00">Shared</text>
</g>
<!-- locations&#45;&gt;shared -->
<g id="edge9" class="edge">
<title>locations&#45;&gt;shared</title>
<path fill="none" stroke="blue" d="M633.08,-113.05C638.91,-110.14 645.07,-107.3 651,-105 665.32,-99.43 681.58,-94.72 695.75,-91.1"/>
<polygon fill="blue" stroke="blue" points="696.78,-94.46 705.65,-88.67 695.1,-87.66 696.78,-94.46"/>
<text text-anchor="middle" x="669.5" y="-107.8" font-family="Arial" font-size="9.00">progress</text>
</g>
<!-- shared&#45;&gt;failed -->
<g id="edge12" class="edge">
<title>shared&#45;&gt;failed</title>
<path fill="none" stroke="blue" d="M760.23,-85.43C790.9,-88.57 843.07,-94.89 887,-105 900.04,-108 914.06,-112.21 926.42,-116.27"/>
<polygon fill="blue" stroke="blue" points="925.33,-119.6 935.92,-119.47 927.56,-112.96 925.33,-119.6"/>
<text text-anchor="middle" x="860" y="-107.8" font-family="Arial" font-size="9.00">fail</text>
</g>
<!-- ready -->
<g id="node9" class="node">
<title>ready</title>
<path fill="white" stroke="black" d="M875,-55C875,-55 845,-55 845,-55 839,-55 833,-49 833,-43 833,-43 833,-31 833,-31 833,-25 839,-19 845,-19 845,-19 875,-19 875,-19 881,-19 887,-25 887,-31 887,-31 887,-43 887,-43 887,-49 881,-55 875,-55"/>
<text text-anchor="middle" x="860" y="-34.5" font-family="Arial" font-size="10.00">Ready</text>
</g>
<!-- shared&#45;&gt;ready -->
<g id="edge11" class="edge">
<title>shared&#45;&gt;ready</title>
<path fill="none" stroke="blue" d="M760.2,-73.36C778.54,-66.61 803.25,-57.52 823.37,-50.11"/>
<polygon fill="blue" stroke="blue" points="824.65,-53.37 832.83,-46.63 822.24,-46.8 824.65,-53.37"/>
<text text-anchor="middle" x="796.5" y="-69.8" font-family="Arial" font-size="9.00">progress</text>
</g>
<!-- ready&#45;&gt;failed -->
<g id="edge14" class="edge">
<title>ready&#45;&gt;failed</title>
<path fill="none" stroke="blue" d="M887.01,-47.51C897.35,-52.46 908.91,-59.05 918,-67 929.4,-76.98 939.42,-90.47 947,-102.31"/>
<polygon fill="blue" stroke="blue" points="944.1,-104.28 952.32,-110.97 950.07,-100.62 944.1,-104.28"/>
<text text-anchor="middle" x="911.5" y="-69.8" font-family="Arial" font-size="9.00">fail</text>
</g>
<!-- ready&#45;&gt;finished -->
<g id="edge13" class="edge">
<title>ready&#45;&gt;finished</title>
<path fill="none" stroke="blue" d="M887.16,-38.35C927.49,-40.44 1005.12,-44.45 1052.67,-46.91"/>
<polygon fill="blue" stroke="blue" points="1052.75,-50.42 1062.91,-47.44 1053.11,-43.43 1052.75,-50.42"/>
<text text-anchor="middle" x="963" y="-46.8" font-family="Arial" font-size="9.00">progress</text>
</g>
</g>
</svg>
