<?xml version="1.0" encoding="UTF-8" standalone="no"?>
<!DOCTYPE svg PUBLIC "-//W3C//DTD SVG 1.1//EN"
 "http://www.w3.org/Graphics/SVG/1.1/DTD/svg11.dtd">
<!-- Generated by graphviz version 2.43.0 (0)
 -->
<!-- Title: list Pages: 1 -->
<svg width="1617pt" height="1026pt"
 viewBox="0.00 0.00 1617.00 1026.00" xmlns="http://www.w3.org/2000/svg" xmlns:xlink="http://www.w3.org/1999/xlink">
<g id="graph0" class="graph" transform="scale(1 1) rotate(0) translate(4 1022)">
<title>list</title>
<polygon fill="white" stroke="transparent" points="-4,4 -4,-1022 1613,-1022 1613,4 -4,4"/>
<text text-anchor="middle" x="804.5" y="-7" font-family="Arial" font-size="10.00">TaskMachine</text>
<!-- i -->
<g id="node1" class="node">
<title>i</title>
<ellipse fill="black" stroke="black" cx="7" cy="-960" rx="7" ry="7"/>
<text text-anchor="middle" x="7" y="-959.7" font-family="Times,serif" font-size="1.00">i</text>
</g>
<!-- NAMED -->
<g id="node2" class="node">
<title>NAMED</title>
<path fill="turquoise" stroke="black" stroke-width="2" d="M93,-978C93,-978 63,-978 63,-978 57,-978 51,-972 51,-966 51,-966 51,-954 51,-954 51,-948 57,-942 63,-942 63,-942 93,-942 93,-942 99,-942 105,-948 105,-954 105,-954 105,-966 105,-966 105,-972 99,-978 93,-978"/>
<text text-anchor="middle" x="78" y="-957.5" font-family="Arial" font-size="10.00">Named</text>
</g>
<!-- i&#45;&gt;NAMED -->
<g id="edge1" class="edge">
<title>i&#45;&gt;NAMED</title>
<path fill="none" stroke="blue" d="M14.37,-960C20.57,-960 30.54,-960 40.71,-960"/>
<polygon fill="blue" stroke="blue" points="40.82,-963.5 50.82,-960 40.82,-956.5 40.82,-963.5"/>
</g>
<!-- DEAD -->
<g id="node3" class="node">
<title>DEAD</title>
<path fill="white" stroke="black" d="M1593,-822C1593,-822 1563,-822 1563,-822 1557,-822 1551,-816 1551,-810 1551,-810 1551,-798 1551,-798 1551,-792 1557,-786 1563,-786 1563,-786 1593,-786 1593,-786 1599,-786 1605,-792 1605,-798 1605,-798 1605,-810 1605,-810 1605,-816 1599,-822 1593,-822"/>
<path fill="none" stroke="black" d="M1597,-826C1597,-826 1559,-826 1559,-826 1553,-826 1547,-820 1547,-814 1547,-814 1547,-794 1547,-794 1547,-788 1553,-782 1559,-782 1559,-782 1597,-782 1597,-782 1603,-782 1609,-788 1609,-794 1609,-794 1609,-814 1609,-814 1609,-820 1603,-826 1597,-826"/>
<text text-anchor="middle" x="1578" y="-801.5" font-family="Arial" font-size="10.00">Dead</text>
</g>
<!-- NAMED&#45;&gt;DEAD -->
<g id="edge2" class="edge">
<title>NAMED&#45;&gt;DEAD</title>
<path fill="none" stroke="blue" d="M105.05,-970.79C134.57,-982.02 184.41,-998 229,-998 229,-998 229,-998 1421.5,-998 1503.58,-998 1549.52,-890.95 1567.72,-835.89"/>
<polygon fill="blue" stroke="blue" points="1571.09,-836.85 1570.8,-826.25 1564.42,-834.72 1571.09,-836.85"/>
<text text-anchor="middle" x="788.5" y="-1010.8" font-family="Arial" font-size="9.00">setup progress</text>
<text text-anchor="middle" x="788.5" y="-1000.8" font-family="Arial" font-size="9.00">[spec_missing]</text>
</g>
<!-- DECLARED -->
<g id="node4" class="node">
<title>DECLARED</title>
<path fill="white" stroke="black" d="M246,-851C246,-851 214,-851 214,-851 208,-851 202,-845 202,-839 202,-839 202,-827 202,-827 202,-821 208,-815 214,-815 214,-815 246,-815 246,-815 252,-815 258,-821 258,-827 258,-827 258,-839 258,-839 258,-845 252,-851 246,-851"/>
<text text-anchor="middle" x="230" y="-830.5" font-family="Arial" font-size="10.00">Declared</text>
</g>
<!-- NAMED&#45;&gt;DECLARED -->
<g id="edge3" class="edge">
<title>NAMED&#45;&gt;DECLARED</title>
<path fill="none" stroke="blue" d="M100.49,-941.8C126.56,-919.74 170.61,-882.44 199.75,-857.76"/>
<polygon fill="blue" stroke="blue" points="202.18,-860.3 207.55,-851.16 197.65,-854.95 202.18,-860.3"/>
<text text-anchor="middle" x="153.5" y="-924.8" font-family="Arial" font-size="9.00">setup progress</text>
</g>
<!-- DISABLED -->
<g id="node5" class="node">
<title>DISABLED</title>
<path fill="white" stroke="black" d="M1088.5,-783C1088.5,-783 1057.5,-783 1057.5,-783 1051.5,-783 1045.5,-777 1045.5,-771 1045.5,-771 1045.5,-759 1045.5,-759 1045.5,-753 1051.5,-747 1057.5,-747 1057.5,-747 1088.5,-747 1088.5,-747 1094.5,-747 1100.5,-753 1100.5,-759 1100.5,-759 1100.5,-771 1100.5,-771 1100.5,-777 1094.5,-783 1088.5,-783"/>
<text text-anchor="middle" x="1073" y="-762.5" font-family="Arial" font-size="10.00">Disabled</text>
</g>
<!-- NAMED&#45;&gt;DISABLED -->
<g id="edge4" class="edge">
<title>NAMED&#45;&gt;DISABLED</title>
<path fill="none" stroke="blue" d="M105.01,-960C134.93,-960 185.51,-960 229,-960 229,-960 229,-960 458.5,-960 698.17,-960 778.61,-968.13 986,-848 1011.38,-833.3 1034.95,-809.53 1050.97,-791.18"/>
<polygon fill="blue" stroke="blue" points="1053.96,-793.07 1057.78,-783.19 1048.64,-788.53 1053.96,-793.07"/>
<text text-anchor="middle" x="533" y="-962.8" font-family="Arial" font-size="9.00">disable</text>
</g>
<!-- DECLARED&#45;&gt;DISABLED -->
<g id="edge6" class="edge">
<title>DECLARED&#45;&gt;DISABLED</title>
<path fill="none" stroke="blue" d="M240.82,-851.15C248.68,-863.94 260.87,-880.44 276,-890 316.47,-915.57 333.13,-914 381,-914 381,-914 381,-914 614.5,-914 692.77,-914 959.79,-834.93 986,-823 1005.5,-814.13 1025.45,-800.97 1041.22,-789.44"/>
<polygon fill="blue" stroke="blue" points="1043.61,-792.02 1049.52,-783.23 1039.41,-786.41 1043.61,-792.02"/>
<text text-anchor="middle" x="613.5" y="-916.8" font-family="Arial" font-size="9.00">disable</text>
</g>
<!-- DEFINED -->
<g id="node6" class="node">
<title>DEFINED</title>
<path fill="white" stroke="black" d="M397,-746C397,-746 367,-746 367,-746 361,-746 355,-740 355,-734 355,-734 355,-722 355,-722 355,-716 361,-710 367,-710 367,-710 397,-710 397,-710 403,-710 409,-716 409,-722 409,-722 409,-734 409,-734 409,-740 403,-746 397,-746"/>
<text text-anchor="middle" x="382" y="-725.5" font-family="Arial" font-size="10.00">Defined</text>
</g>
<!-- DECLARED&#45;&gt;DEFINED -->
<g id="edge5" class="edge">
<title>DECLARED&#45;&gt;DEFINED</title>
<path fill="none" stroke="blue" d="M256.79,-814.95C281.58,-797.6 319.21,-771.25 346.56,-752.11"/>
<polygon fill="blue" stroke="blue" points="348.86,-754.77 355.05,-746.17 344.85,-749.03 348.86,-754.77"/>
<text text-anchor="middle" x="306.5" y="-802.8" font-family="Arial" font-size="9.00">setup progress</text>
</g>
<!-- SKIPPED -->
<g id="node7" class="node">
<title>SKIPPED</title>
<path fill="white" stroke="black" d="M1278.5,-235C1278.5,-235 1248.5,-235 1248.5,-235 1242.5,-235 1236.5,-229 1236.5,-223 1236.5,-223 1236.5,-211 1236.5,-211 1236.5,-205 1242.5,-199 1248.5,-199 1248.5,-199 1278.5,-199 1278.5,-199 1284.5,-199 1290.5,-205 1290.5,-211 1290.5,-211 1290.5,-223 1290.5,-223 1290.5,-229 1284.5,-235 1278.5,-235"/>
<text text-anchor="middle" x="1263.5" y="-214.5" font-family="Arial" font-size="10.00">Skipped</text>
</g>
<!-- DECLARED&#45;&gt;SKIPPED -->
<g id="edge7" class="edge">
<title>DECLARED&#45;&gt;SKIPPED</title>
<path fill="none" stroke="blue" d="M230.89,-814.94C230.49,-721.19 231.19,-289.55 276,-165 303.06,-89.79 301.07,-19 381,-19 381,-19 381,-19 1074,-19 1141.93,-19 1169.88,-27.22 1215,-78 1243.03,-109.55 1254.67,-158.39 1259.4,-188.99"/>
<polygon fill="blue" stroke="blue" points="1255.95,-189.57 1260.8,-198.99 1262.88,-188.6 1255.95,-189.57"/>
<text text-anchor="middle" x="701" y="-21.8" font-family="Arial" font-size="9.00">skip progress</text>
</g>
<!-- HALTED -->
<g id="node8" class="node">
<title>HALTED</title>
<path fill="white" stroke="black" d="M1278.5,-381C1278.5,-381 1248.5,-381 1248.5,-381 1242.5,-381 1236.5,-375 1236.5,-369 1236.5,-369 1236.5,-357 1236.5,-357 1236.5,-351 1242.5,-345 1248.5,-345 1248.5,-345 1278.5,-345 1278.5,-345 1284.5,-345 1290.5,-351 1290.5,-357 1290.5,-357 1290.5,-369 1290.5,-369 1290.5,-375 1284.5,-381 1278.5,-381"/>
<text text-anchor="middle" x="1263.5" y="-360.5" font-family="Arial" font-size="10.00">Halted</text>
</g>
<!-- DECLARED&#45;&gt;HALTED -->
<g id="edge8" class="edge">
<title>DECLARED&#45;&gt;HALTED</title>
<path fill="none" stroke="blue" d="M230.95,-814.85C231.12,-705.66 238.86,-141 381,-141 381,-141 381,-141 951.5,-141 1074.02,-141 1127.22,-136.53 1215,-222 1245.93,-252.11 1256.72,-302.99 1260.48,-334.7"/>
<polygon fill="blue" stroke="blue" points="1257,-335.07 1261.51,-344.66 1263.97,-334.35 1257,-335.07"/>
<text text-anchor="middle" x="701" y="-143.8" font-family="Arial" font-size="9.00">halt progress</text>
</g>
<!-- FAILED -->
<g id="node9" class="node">
<title>FAILED</title>
<path fill="white" stroke="black" d="M1278.5,-628C1278.5,-628 1248.5,-628 1248.5,-628 1242.5,-628 1236.5,-622 1236.5,-616 1236.5,-616 1236.5,-604 1236.5,-604 1236.5,-598 1242.5,-592 1248.5,-592 1248.5,-592 1278.5,-592 1278.5,-592 1284.5,-592 1290.5,-598 1290.5,-604 1290.5,-604 1290.5,-616 1290.5,-616 1290.5,-622 1284.5,-628 1278.5,-628"/>
<text text-anchor="middle" x="1263.5" y="-607.5" font-family="Arial" font-size="10.00">Failed</text>
</g>
<!-- DECLARED&#45;&gt;FAILED -->
<g id="edge9" class="edge">
<title>DECLARED&#45;&gt;FAILED</title>
<path fill="none" stroke="blue" d="M258.25,-845.78C287.81,-858.46 336.71,-876 381,-876 381,-876 381,-876 614.5,-876 851.9,-876 944.88,-924.29 1142,-792 1171.67,-772.09 1223.02,-682.75 1248,-637.07"/>
<polygon fill="blue" stroke="blue" points="1251.22,-638.49 1252.92,-628.03 1245.07,-635.15 1251.22,-638.49"/>
<text text-anchor="middle" x="701" y="-881.8" font-family="Arial" font-size="9.00">fail progress</text>
</g>
<!-- TEARDOWN -->
<g id="node11" class="node">
<title>TEARDOWN</title>
<path fill="white" stroke="black" d="M1438,-602C1438,-602 1403,-602 1403,-602 1397,-602 1391,-596 1391,-590 1391,-590 1391,-578 1391,-578 1391,-572 1397,-566 1403,-566 1403,-566 1438,-566 1438,-566 1444,-566 1450,-572 1450,-578 1450,-578 1450,-590 1450,-590 1450,-596 1444,-602 1438,-602"/>
<text text-anchor="middle" x="1420.5" y="-581.5" font-family="Arial" font-size="10.00">Teardown</text>
</g>
<!-- DISABLED&#45;&gt;TEARDOWN -->
<g id="edge16" class="edge">
<title>DISABLED&#45;&gt;TEARDOWN</title>
<path fill="none" stroke="blue" d="M1100.65,-760.16C1129.71,-754.26 1177.13,-742.83 1215,-725 1282.47,-693.23 1352.1,-640.05 1390.18,-608.87"/>
<polygon fill="blue" stroke="blue" points="1392.79,-611.26 1398.27,-602.2 1388.33,-605.87 1392.79,-611.26"/>
<text text-anchor="middle" x="1263.5" y="-718.8" font-family="Arial" font-size="9.00">finish progress</text>
</g>
<!-- DEFINED&#45;&gt;DISABLED -->
<g id="edge10" class="edge">
<title>DEFINED&#45;&gt;DISABLED</title>
<path fill="none" stroke="blue" d="M392.18,-746.22C399.8,-759.6 411.83,-777.24 427,-788 466.79,-816.22 483.21,-820 532,-820 532,-820 532,-820 870.5,-820 930.13,-820 996.3,-797.31 1036,-781.07"/>
<polygon fill="blue" stroke="blue" points="1037.38,-784.29 1045.26,-777.21 1034.68,-777.83 1037.38,-784.29"/>
<text text-anchor="middle" x="701" y="-832.8" font-family="Arial" font-size="9.00">setup progress</text>
<text text-anchor="middle" x="701" y="-822.8" font-family="Arial" font-size="9.00">[should_disable]</text>
</g>
<!-- DEFINED&#45;&gt;DISABLED -->
<g id="edge12" class="edge">
<title>DEFINED&#45;&gt;DISABLED</title>
<path fill="none" stroke="blue" d="M409.16,-741.31C438.34,-754.89 487.33,-774 532,-774 532,-774 532,-774 870.5,-774 928.04,-774 994.73,-770.29 1035.12,-767.64"/>
<polygon fill="blue" stroke="blue" points="1035.55,-771.12 1045.29,-766.95 1035.08,-764.13 1035.55,-771.12"/>
<text text-anchor="middle" x="701" y="-776.8" font-family="Arial" font-size="9.00">disable</text>
</g>
<!-- DEFINED&#45;&gt;SKIPPED -->
<g id="edge13" class="edge">
<title>DEFINED&#45;&gt;SKIPPED</title>
<path fill="none" stroke="blue" d="M383.04,-709.7C383.78,-602.16 394.32,-57 532,-57 532,-57 532,-57 1074,-57 1144.77,-57 1164.43,-81.49 1215,-131 1231.84,-147.49 1244.34,-171.23 1252.28,-189.59"/>
<polygon fill="blue" stroke="blue" points="1249.07,-190.99 1256.11,-198.9 1255.54,-188.32 1249.07,-190.99"/>
<text text-anchor="middle" x="788.5" y="-59.8" font-family="Arial" font-size="9.00">skip progress</text>
</g>
<!-- DEFINED&#45;&gt;HALTED -->
<g id="edge14" class="edge">
<title>DEFINED&#45;&gt;HALTED</title>
<path fill="none" stroke="blue" d="M384.27,-709.81C391.08,-618.78 427.11,-217 532,-217 532,-217 532,-217 1074,-217 1139.65,-217 1165.59,-217.78 1215,-261 1237.06,-280.3 1249.57,-312.01 1256.16,-334.95"/>
<polygon fill="blue" stroke="blue" points="1252.83,-336.04 1258.78,-344.8 1259.59,-334.24 1252.83,-336.04"/>
<text text-anchor="middle" x="788.5" y="-219.8" font-family="Arial" font-size="9.00">halt progress</text>
</g>
<!-- DEFINED&#45;&gt;FAILED -->
<g id="edge15" class="edge">
<title>DEFINED&#45;&gt;FAILED</title>
<path fill="none" stroke="blue" d="M409.17,-727.95C477.53,-727.61 667.08,-725.24 824,-710 966.33,-696.17 1000.93,-684.43 1142,-661 1174.51,-655.6 1184.98,-661.6 1215,-648 1222.44,-644.63 1229.72,-639.83 1236.26,-634.76"/>
<polygon fill="blue" stroke="blue" points="1238.61,-637.36 1244.1,-628.3 1234.15,-631.96 1238.61,-637.36"/>
<text text-anchor="middle" x="788.5" y="-718.8" font-family="Arial" font-size="9.00">fail progress</text>
</g>
<!-- INIT -->
<g id="node10" class="node">
<title>INIT</title>
<path fill="white" stroke="black" d="M548,-633C548,-633 518,-633 518,-633 512,-633 506,-627 506,-621 506,-621 506,-609 506,-609 506,-603 512,-597 518,-597 518,-597 548,-597 548,-597 554,-597 560,-603 560,-609 560,-609 560,-621 560,-621 560,-627 554,-633 548,-633"/>
<text text-anchor="middle" x="533" y="-612.5" font-family="Arial" font-size="10.00">Init</text>
</g>
<!-- DEFINED&#45;&gt;INIT -->
<g id="edge11" class="edge">
<title>DEFINED&#45;&gt;INIT</title>
<path fill="none" stroke="blue" d="M406.94,-709.84C432.14,-690.73 471.95,-660.54 499.87,-639.37"/>
<polygon fill="blue" stroke="blue" points="502.27,-641.94 508.12,-633.11 498.04,-636.36 502.27,-641.94"/>
<text text-anchor="middle" x="457.5" y="-697.8" font-family="Arial" font-size="9.00">setup progress</text>
</g>
<!-- SKIPPED&#45;&gt;TEARDOWN -->
<g id="edge41" class="edge">
<title>SKIPPED&#45;&gt;TEARDOWN</title>
<path fill="none" stroke="blue" d="M1275.88,-235.21C1297.32,-270.12 1344.12,-349.38 1373,-421 1391.57,-467.05 1405.86,-523.21 1413.45,-556.15"/>
<polygon fill="blue" stroke="blue" points="1410.05,-557 1415.67,-565.98 1416.88,-555.46 1410.05,-557"/>
<text text-anchor="middle" x="1342.5" y="-423.8" font-family="Arial" font-size="9.00">finish progress</text>
</g>
<!-- HALTED&#45;&gt;TEARDOWN -->
<g id="edge42" class="edge">
<title>HALTED&#45;&gt;TEARDOWN</title>
<path fill="none" stroke="blue" d="M1277.18,-381.09C1304.5,-420.03 1369,-511.99 1400.93,-557.52"/>
<polygon fill="blue" stroke="blue" points="1398.25,-559.8 1406.86,-565.97 1403.98,-555.78 1398.25,-559.8"/>
<text text-anchor="middle" x="1342.5" y="-515.8" font-family="Arial" font-size="9.00">finish progress</text>
</g>
<!-- FAILED&#45;&gt;TEARDOWN -->
<g id="edge43" class="edge">
<title>FAILED&#45;&gt;TEARDOWN</title>
<path fill="none" stroke="blue" d="M1290.79,-605.59C1315.56,-601.43 1352.96,-595.16 1381.08,-590.45"/>
<polygon fill="blue" stroke="blue" points="1381.69,-593.89 1390.97,-588.79 1380.53,-586.99 1381.69,-593.89"/>
<text text-anchor="middle" x="1342.5" y="-604.8" font-family="Arial" font-size="9.00">finish progress</text>
</g>
<!-- INIT&#45;&gt;DISABLED -->
<g id="edge18" class="edge">
<title>INIT&#45;&gt;DISABLED</title>
<path fill="none" stroke="blue" d="M544.73,-633.1C552.48,-644.48 564.03,-658.4 578,-666 674.96,-718.74 715.76,-678.41 824,-700 900.21,-715.2 987.81,-739.9 1035.83,-754.07"/>
<polygon fill="blue" stroke="blue" points="1034.87,-757.44 1045.45,-756.93 1036.86,-750.73 1034.87,-757.44"/>
<text text-anchor="middle" x="788.5" y="-702.8" font-family="Arial" font-size="9.00">disable</text>
</g>
<!-- INIT&#45;&gt;SKIPPED -->
<g id="edge19" class="edge">
<title>INIT&#45;&gt;SKIPPED</title>
<path fill="none" stroke="blue" d="M537.66,-596.64C551.87,-530.43 609.87,-302.26 753,-195 893.45,-89.75 975.44,-71.66 1142,-127 1180.29,-139.72 1216.26,-169.88 1238.76,-191.79"/>
<polygon fill="blue" stroke="blue" points="1236.31,-194.28 1245.86,-198.86 1241.25,-189.32 1236.31,-194.28"/>
<text text-anchor="middle" x="869.5" y="-139.8" font-family="Arial" font-size="9.00">skip progress</text>
</g>
<!-- INIT&#45;&gt;HALTED -->
<g id="edge20" class="edge">
<title>INIT&#45;&gt;HALTED</title>
<path fill="none" stroke="blue" d="M544.76,-596.99C552.93,-584.17 564.95,-566.99 578,-554 739.45,-393.3 785.31,-332.77 1004,-269 1094.93,-242.48 1140.24,-240.84 1215,-299 1227.92,-309.05 1239.04,-323.48 1247.27,-336.09"/>
<polygon fill="blue" stroke="blue" points="1244.47,-338.23 1252.73,-344.87 1250.42,-334.53 1244.47,-338.23"/>
<text text-anchor="middle" x="869.5" y="-332.8" font-family="Arial" font-size="9.00">halt progress</text>
</g>
<!-- INIT&#45;&gt;FAILED -->
<g id="edge21" class="edge">
<title>INIT&#45;&gt;FAILED</title>
<path fill="none" stroke="blue" d="M560.05,-619.66C651.3,-635.13 964.6,-680.91 1215,-629 1218.9,-628.19 1222.89,-627.08 1226.82,-625.81"/>
<polygon fill="blue" stroke="blue" points="1228.17,-629.04 1236.38,-622.35 1225.79,-622.46 1228.17,-629.04"/>
<text text-anchor="middle" x="869.5" y="-655.8" font-family="Arial" font-size="9.00">fail progress</text>
</g>
<!-- WAIT -->
<g id="node12" class="node">
<title>WAIT</title>
<path fill="white" stroke="black" d="M716,-548C716,-548 686,-548 686,-548 680,-548 674,-542 674,-536 674,-536 674,-524 674,-524 674,-518 680,-512 686,-512 686,-512 716,-512 716,-512 722,-512 728,-518 728,-524 728,-524 728,-536 728,-536 728,-542 722,-548 716,-548"/>
<text text-anchor="middle" x="701" y="-527.5" font-family="Arial" font-size="10.00">Wait</text>
</g>
<!-- INIT&#45;&gt;WAIT -->
<g id="edge17" class="edge">
<title>INIT&#45;&gt;WAIT</title>
<path fill="none" stroke="blue" d="M560.3,-601.53C588.47,-587.11 633.33,-564.14 664.59,-548.13"/>
<polygon fill="blue" stroke="blue" points="666.51,-551.08 673.82,-543.41 663.32,-544.85 666.51,-551.08"/>
<text text-anchor="middle" x="613.5" y="-595.8" font-family="Arial" font-size="9.00">prepare progress</text>
</g>
<!-- TEARDOWN&#45;&gt;DEAD -->
<g id="edge45" class="edge">
<title>TEARDOWN&#45;&gt;DEAD</title>
<path fill="none" stroke="blue" d="M1434.23,-602C1460.86,-639.68 1522.71,-727.19 1555.58,-773.69"/>
<polygon fill="blue" stroke="blue" points="1552.73,-775.73 1561.36,-781.88 1558.45,-771.69 1552.73,-775.73"/>
<text text-anchor="middle" x="1498.5" y="-735.8" font-family="Arial" font-size="9.00">finish progress</text>
</g>
<!-- WAIT&#45;&gt;DISABLED -->
<g id="edge25" class="edge">
<title>WAIT&#45;&gt;DISABLED</title>
<path fill="none" stroke="blue" d="M715.88,-548.12C725.28,-559.28 738.57,-573.11 753,-582 810.2,-617.24 837.62,-596.58 897,-628 955.16,-658.78 1013.5,-709.35 1045.96,-739.68"/>
<polygon fill="blue" stroke="blue" points="1043.97,-742.62 1053.64,-746.94 1048.77,-737.53 1043.97,-742.62"/>
<text text-anchor="middle" x="869.5" y="-630.8" font-family="Arial" font-size="9.00">disable</text>
</g>
<!-- WAIT&#45;&gt;SKIPPED -->
<g id="edge26" class="edge">
<title>WAIT&#45;&gt;SKIPPED</title>
<path fill="none" stroke="blue" d="M705.31,-511.89C715.59,-461.03 751.87,-315.81 842,-243 971.69,-138.23 1049.98,-179.19 1215,-203 1218.71,-203.53 1222.53,-204.29 1226.32,-205.18"/>
<polygon fill="blue" stroke="blue" points="1225.61,-208.62 1236.17,-207.78 1227.39,-201.85 1225.61,-208.62"/>
<text text-anchor="middle" x="950.5" y="-198.8" font-family="Arial" font-size="9.00">skip progress</text>
</g>
<!-- WAIT&#45;&gt;HALTED -->
<g id="edge27" class="edge">
<title>WAIT&#45;&gt;HALTED</title>
<path fill="none" stroke="blue" d="M718.87,-511.81C728.33,-502.23 740.68,-490.7 753,-482 855.45,-409.64 882.09,-382.49 1004,-353 1081.43,-334.27 1175.67,-346.3 1226.24,-355.45"/>
<polygon fill="blue" stroke="blue" points="1225.88,-358.94 1236.35,-357.35 1227.17,-352.06 1225.88,-358.94"/>
<text text-anchor="middle" x="950.5" y="-383.8" font-family="Arial" font-size="9.00">halt progress</text>
</g>
<!-- WAIT&#45;&gt;FAILED -->
<g id="edge22" class="edge">
<title>WAIT&#45;&gt;FAILED</title>
<path fill="none" stroke="blue" d="M728.43,-527.18C790.45,-521.06 943.29,-509.14 986,-535 1000.29,-543.65 990.45,-558.23 1004,-568 1061.14,-609.19 1090.42,-585.01 1160,-596 1181.96,-599.47 1206.64,-602.85 1226.28,-605.43"/>
<polygon fill="blue" stroke="blue" points="1225.97,-608.92 1236.34,-606.73 1226.87,-601.98 1225.97,-608.92"/>
<text text-anchor="middle" x="950.5" y="-547.8" font-family="Arial" font-size="9.00">prepare progress</text>
<text text-anchor="middle" x="950.5" y="-537.8" font-family="Arial" font-size="9.00">[should_cancel]</text>
</g>
<!-- WAIT&#45;&gt;FAILED -->
<g id="edge28" class="edge">
<title>WAIT&#45;&gt;FAILED</title>
<path fill="none" stroke="blue" d="M728.46,-533.93C796.77,-544.14 974.53,-571.1 986,-577 996.06,-582.17 993.83,-590.05 1004,-595 1066.79,-625.59 1090.28,-609.77 1160,-614 1184.4,-615.48 1190.58,-615.03 1215,-614 1218.69,-613.84 1222.54,-613.62 1226.37,-613.36"/>
<polygon fill="blue" stroke="blue" points="1226.69,-616.85 1236.39,-612.6 1226.15,-609.87 1226.69,-616.85"/>
<text text-anchor="middle" x="950.5" y="-579.8" font-family="Arial" font-size="9.00">fail progress</text>
</g>
<!-- WAIT&#45;&gt;WAIT -->
<g id="edge23" class="edge">
<title>WAIT&#45;&gt;WAIT</title>
<path fill="none" stroke="blue" d="M685.44,-548.15C683.05,-557.54 688.23,-566 701,-566 708.78,-566 713.74,-562.86 715.89,-558.28"/>
<polygon fill="blue" stroke="blue" points="719.4,-558.36 716.56,-548.15 712.41,-557.9 719.4,-558.36"/>
<text text-anchor="middle" x="701" y="-578.8" font-family="Arial" font-size="9.00">prepare progress</text>
<text text-anchor="middle" x="701" y="-568.8" font-family="Arial" font-size="9.00">[should_wait]</text>
</g>
<!-- READY -->
<g id="node13" class="node">
<title>READY</title>
<path fill="white" stroke="black" d="M884.5,-494C884.5,-494 854.5,-494 854.5,-494 848.5,-494 842.5,-488 842.5,-482 842.5,-482 842.5,-470 842.5,-470 842.5,-464 848.5,-458 854.5,-458 854.5,-458 884.5,-458 884.5,-458 890.5,-458 896.5,-464 896.5,-470 896.5,-470 896.5,-482 896.5,-482 896.5,-488 890.5,-494 884.5,-494"/>
<text text-anchor="middle" x="869.5" y="-473.5" font-family="Arial" font-size="10.00">Ready</text>
</g>
<!-- WAIT&#45;&gt;READY -->
<g id="edge24" class="edge">
<title>WAIT&#45;&gt;READY</title>
<path fill="none" stroke="blue" d="M728.07,-516.59C735.96,-512.85 744.72,-508.99 753,-506 779.02,-496.59 809.32,-488.83 832.36,-483.57"/>
<polygon fill="blue" stroke="blue" points="833.4,-486.92 842.39,-481.33 831.87,-480.09 833.4,-486.92"/>
<text text-anchor="middle" x="788.5" y="-508.8" font-family="Arial" font-size="9.00">prepare progress</text>
</g>
<!-- READY&#45;&gt;DISABLED -->
<g id="edge31" class="edge">
<title>READY&#45;&gt;DISABLED</title>
<path fill="none" stroke="blue" d="M872.88,-494.18C877.05,-518.83 887.98,-562.68 915,-588 939.2,-610.68 960.36,-589.95 986,-611 1026.75,-644.46 1051.59,-702.58 1063.49,-737.05"/>
<polygon fill="blue" stroke="blue" points="1060.3,-738.54 1066.77,-746.93 1066.94,-736.34 1060.3,-738.54"/>
<text text-anchor="middle" x="950.5" y="-613.8" font-family="Arial" font-size="9.00">disable</text>
</g>
<!-- READY&#45;&gt;SKIPPED -->
<g id="edge29" class="edge">
<title>READY&#45;&gt;SKIPPED</title>
<path fill="none" stroke="blue" d="M894.97,-457.91C921.28,-438.79 964.64,-408.26 1004,-385 1004.71,-384.58 1214.37,-278.52 1215,-278 1226.8,-268.27 1237.51,-255.12 1245.76,-243.52"/>
<polygon fill="blue" stroke="blue" points="1248.81,-245.26 1251.56,-235.03 1243.03,-241.31 1248.81,-245.26"/>
<text text-anchor="middle" x="1073" y="-397.8" font-family="Arial" font-size="9.00">run progress</text>
<text text-anchor="middle" x="1073" y="-387.8" font-family="Arial" font-size="9.00">[should_skip]</text>
</g>
<!-- READY&#45;&gt;SKIPPED -->
<g id="edge32" class="edge">
<title>READY&#45;&gt;SKIPPED</title>
<path fill="none" stroke="blue" d="M877.15,-457.89C884.4,-439.92 897.38,-412.33 915,-393 940.49,-365.03 961.99,-375.25 986,-346 999.4,-329.67 988.54,-316.4 1004,-302 1066.99,-243.31 1171.31,-225.1 1226.19,-219.48"/>
<polygon fill="blue" stroke="blue" points="1226.53,-222.97 1236.16,-218.55 1225.87,-216 1226.53,-222.97"/>
<text text-anchor="middle" x="1073" y="-304.8" font-family="Arial" font-size="9.00">skip progress</text>
</g>
<!-- READY&#45;&gt;HALTED -->
<g id="edge33" class="edge">
<title>READY&#45;&gt;HALTED</title>
<path fill="none" stroke="blue" d="M896.93,-470.41C960.97,-456.72 1120.76,-421.73 1142,-409 1152.26,-402.85 1149.76,-395.18 1160,-389 1180.17,-376.82 1205.87,-370.32 1226.49,-366.86"/>
<polygon fill="blue" stroke="blue" points="1227.09,-370.31 1236.46,-365.36 1226.05,-363.39 1227.09,-370.31"/>
<text text-anchor="middle" x="1073" y="-449.8" font-family="Arial" font-size="9.00">halt progress</text>
</g>
<!-- READY&#45;&gt;FAILED -->
<g id="edge34" class="edge">
<title>READY&#45;&gt;FAILED</title>
<path fill="none" stroke="blue" d="M896.77,-483.4C960.45,-501.41 1119.49,-546.87 1142,-558 1150.85,-562.38 1151.31,-566.32 1160,-571 1181.22,-582.44 1206.52,-592.1 1226.68,-598.95"/>
<polygon fill="blue" stroke="blue" points="1225.81,-602.35 1236.41,-602.17 1228.01,-595.71 1225.81,-602.35"/>
<text text-anchor="middle" x="1073" y="-560.8" font-family="Arial" font-size="9.00">fail progress</text>
</g>
<!-- RUNNING -->
<g id="node14" class="node">
<title>RUNNING</title>
<path fill="white" stroke="black" d="M1130,-505C1130,-505 1016,-505 1016,-505 1010,-505 1004,-499 1004,-493 1004,-493 1004,-481 1004,-481 1004,-475 1010,-469 1016,-469 1016,-469 1130,-469 1130,-469 1136,-469 1142,-475 1142,-481 1142,-481 1142,-493 1142,-493 1142,-499 1136,-505 1130,-505"/>
<text text-anchor="middle" x="1073" y="-490" font-family="Arial" font-size="10.00">Running</text>
<text text-anchor="middle" x="1073" y="-479" font-family="Arial" font-size="10.00">entry / on_enter_RUNNING</text>
</g>
<!-- READY&#45;&gt;RUNNING -->
<g id="edge30" class="edge">
<title>READY&#45;&gt;RUNNING</title>
<path fill="none" stroke="blue" d="M896.68,-475.43C920.1,-475.11 955.38,-475.09 986,-477 988.56,-477.16 991.16,-477.34 993.78,-477.54"/>
<polygon fill="blue" stroke="blue" points="993.73,-481.05 1003.99,-478.41 994.32,-474.08 993.73,-481.05"/>
<text text-anchor="middle" x="950.5" y="-479.8" font-family="Arial" font-size="9.00">run progress</text>
</g>
<!-- RUNNING&#45;&gt;SKIPPED -->
<g id="edge38" class="edge">
<title>RUNNING&#45;&gt;SKIPPED</title>
<path fill="none" stroke="blue" d="M1126,-468.97C1132.05,-465.12 1137.61,-460.51 1142,-455 1165.51,-425.47 1143.81,-406.1 1160,-372 1176.82,-336.57 1193.22,-335.61 1215,-303 1227.63,-284.09 1239.99,-261.55 1248.93,-244.3"/>
<polygon fill="blue" stroke="blue" points="1252.09,-245.8 1253.53,-235.31 1245.86,-242.62 1252.09,-245.8"/>
<text text-anchor="middle" x="1187.5" y="-374.8" font-family="Arial" font-size="9.00">skip progress</text>
</g>
<!-- RUNNING&#45;&gt;HALTED -->
<g id="edge35" class="edge">
<title>RUNNING&#45;&gt;HALTED</title>
<path fill="none" stroke="blue" d="M1124.27,-468.92C1152.6,-457.27 1187.68,-440.32 1215,-419 1225.76,-410.6 1235.82,-399.44 1243.89,-389.29"/>
<polygon fill="blue" stroke="blue" points="1246.87,-391.15 1250.18,-381.09 1241.32,-386.9 1246.87,-391.15"/>
<text text-anchor="middle" x="1187.5" y="-465.8" font-family="Arial" font-size="9.00">run progress</text>
<text text-anchor="middle" x="1187.5" y="-455.8" font-family="Arial" font-size="9.00">[should_halt]</text>
</g>
<!-- RUNNING&#45;&gt;HALTED -->
<g id="edge39" class="edge">
<title>RUNNING&#45;&gt;HALTED</title>
<path fill="none" stroke="blue" d="M1124.21,-468.93C1130.76,-465.06 1136.94,-460.45 1142,-455 1157.22,-438.61 1144.3,-423.93 1160,-408 1178.48,-389.25 1190.91,-396.63 1215,-386 1218.87,-384.29 1222.88,-382.45 1226.87,-380.59"/>
<polygon fill="blue" stroke="blue" points="1228.5,-383.69 1236.02,-376.23 1225.49,-377.37 1228.5,-383.69"/>
<text text-anchor="middle" x="1187.5" y="-410.8" font-family="Arial" font-size="9.00">halt progress</text>
</g>
<!-- RUNNING&#45;&gt;FAILED -->
<g id="edge36" class="edge">
<title>RUNNING&#45;&gt;FAILED</title>
<path fill="none" stroke="blue" d="M1111.07,-505.16C1126.17,-512.43 1143.84,-520.78 1160,-528 1184.19,-538.82 1193.82,-535.08 1215,-551 1226.9,-559.94 1237.55,-572.5 1245.75,-583.74"/>
<polygon fill="blue" stroke="blue" points="1242.92,-585.8 1251.51,-591.99 1248.66,-581.79 1242.92,-585.8"/>
<text text-anchor="middle" x="1187.5" y="-563.8" font-family="Arial" font-size="9.00">run progress</text>
<text text-anchor="middle" x="1187.5" y="-553.8" font-family="Arial" font-size="9.00">[should_fail]</text>
</g>
<!-- RUNNING&#45;&gt;FAILED -->
<g id="edge40" class="edge">
<title>RUNNING&#45;&gt;FAILED</title>
<path fill="none" stroke="blue" d="M1142.15,-495.86C1172.15,-500.88 1203.23,-507.98 1215,-517 1220.74,-521.4 1237.79,-556.47 1249.81,-582.25"/>
<polygon fill="blue" stroke="blue" points="1246.76,-583.99 1254.14,-591.59 1253.11,-581.04 1246.76,-583.99"/>
<text text-anchor="middle" x="1187.5" y="-519.8" font-family="Arial" font-size="9.00">fail progress</text>
</g>
<!-- SUCCESS -->
<g id="node15" class="node">
<title>SUCCESS</title>
<path fill="white" stroke="black" d="M1279,-538C1279,-538 1248,-538 1248,-538 1242,-538 1236,-532 1236,-526 1236,-526 1236,-514 1236,-514 1236,-508 1242,-502 1248,-502 1248,-502 1279,-502 1279,-502 1285,-502 1291,-508 1291,-514 1291,-514 1291,-526 1291,-526 1291,-532 1285,-538 1279,-538"/>
<text text-anchor="middle" x="1263.5" y="-517.5" font-family="Arial" font-size="10.00">Success</text>
</g>
<!-- RUNNING&#45;&gt;SUCCESS -->
<g id="edge37" class="edge">
<title>RUNNING&#45;&gt;SUCCESS</title>
<path fill="none" stroke="blue" d="M1142.07,-477.13C1165.67,-476.02 1191.97,-477.43 1215,-485 1222.23,-487.37 1229.26,-491.32 1235.6,-495.72"/>
<polygon fill="blue" stroke="blue" points="1233.68,-498.65 1243.77,-501.89 1237.9,-493.07 1233.68,-498.65"/>
<text text-anchor="middle" x="1187.5" y="-487.8" font-family="Arial" font-size="9.00">run progress</text>
</g>
<!-- SUCCESS&#45;&gt;TEARDOWN -->
<g id="edge44" class="edge">
<title>SUCCESS&#45;&gt;TEARDOWN</title>
<path fill="none" stroke="blue" d="M1291.15,-531C1316,-541.26 1353.35,-556.69 1381.36,-568.25"/>
<polygon fill="blue" stroke="blue" points="1380.26,-571.58 1390.84,-572.17 1382.93,-565.11 1380.26,-571.58"/>
<text text-anchor="middle" x="1342.5" y="-566.8" font-family="Arial" font-size="9.00">finish progress</text>
</g>
</g>
</svg>
